<svg xmlns="http://www.w3.org/2000/svg" width="99.962" height="99.962" viewBox="0 0 99.962 99.962">
  <g id="Bill-Payment" transform="translate(-2 -2)">
    <path id="Path_676" data-name="Path 676" d="M96.964,45.317H83.636V3.666A1.666,1.666,0,0,0,81.97,2c-2.7,0-3.924,2.459-4.831,4.253-.7,1.411-1.243,2.411-1.833,2.411s-1.123-1-1.824-2.4c-.9-1.8-2.124-4.26-4.823-4.26s-3.925,2.459-4.823,4.253c-.706,1.411-1.251,2.411-1.841,2.411s-1.136-1-1.843-2.411C59.253,4.459,58.025,2,55.33,2S51.4,4.459,50.507,6.253c-.706,1.411-1.251,2.411-1.841,2.411s-1.136-1-1.843-2.411C45.927,4.459,44.7,2,42,2S38.076,4.459,37.17,6.253c-.7,1.411-1.243,2.411-1.833,2.411s-1.136-1-1.843-2.411C32.6,4.459,31.369,2,28.673,2s-3.925,2.459-4.831,4.253c-.7,1.411-1.243,2.411-1.833,2.411s-1.151-1-1.859-2.419C19.25,4.454,18.021,2,15.328,2a1.666,1.666,0,0,0-1.666,1.666V38.653H5.332A3.332,3.332,0,0,0,2,41.985V65.309a3.332,3.332,0,0,0,3.332,3.332h8.33V91.966A3.332,3.332,0,0,0,16.994,95.3H61.977v1.666a5,5,0,0,0,5,5H96.964a5,5,0,0,0,5-5V50.315a5,5,0,0,0-5-5ZM5.332,41.985H55.313V65.309H5.332ZM16.994,91.966V68.641H55.313a3.332,3.332,0,0,0,3.332-3.332V41.985a3.332,3.332,0,0,0-3.332-3.332H16.994V7.391c.058.112.117.228.175.347.9,1.8,2.134,4.258,4.84,4.258s3.925-2.459,4.815-4.253c.713-1.411,1.258-2.411,1.849-2.411s1.135,1,1.833,2.411C31.412,9.537,32.642,12,35.337,12s3.925-2.459,4.815-4.253C40.865,6.332,41.41,5.332,42,5.332s1.135,1,1.833,2.411C44.74,9.537,45.97,12,48.666,12s3.925-2.459,4.815-4.253c.713-1.411,1.258-2.411,1.849-2.411s1.135,1,1.841,2.411C58.069,9.537,59.3,12,61.994,12s3.924-2.459,4.815-4.253c.713-1.411,1.258-2.411,1.849-2.411s1.136,1,1.841,2.416C71.394,9.54,72.62,12,75.305,12s3.924-2.459,4.831-4.253l.167-.348V45.317H66.975a5,5,0,0,0-5,5V91.966Zm81.636,5a1.666,1.666,0,0,1-1.666,1.666H66.975a1.666,1.666,0,0,1-1.666-1.666V50.315a1.666,1.666,0,0,1,1.666-1.666H96.964a1.666,1.666,0,0,1,1.666,1.666Z" transform="translate(0 0)" fill="#fff"/>
    <path id="Path_677" data-name="Path 677" d="M66.99,32H43.666A1.666,1.666,0,0,0,42,33.666v10a1.666,1.666,0,0,0,1.666,1.666H66.99a1.666,1.666,0,0,0,1.666-1.666v-10A1.666,1.666,0,0,0,66.99,32ZM65.324,42H45.332V35.332H65.324Z" transform="translate(26.641 19.981)" fill="#fff"/>
    <path id="Path_678" data-name="Path 678" d="M66.99,42H43.666A1.666,1.666,0,0,0,42,43.666V66.99a1.666,1.666,0,0,0,1.666,1.666H66.99a1.666,1.666,0,0,0,1.666-1.666V43.666A1.666,1.666,0,0,0,66.99,42ZM65.324,53.662h-8.33v-8.33h8.33Zm-11.662-8.33v8.33h-8.33v-8.33Zm-8.33,11.662h8.33v8.33h-8.33Zm11.662,8.33v-8.33h8.33v8.33Z" transform="translate(26.641 26.641)" fill="#fff"/>
    <path id="Path_679" data-name="Path 679" d="M29,15H45.66v3.332H29Z" transform="translate(17.983 8.658)" fill="#fff"/>
    <path id="Path_680" data-name="Path 680" d="M29,19H45.66v3.332H29Z" transform="translate(17.983 11.323)" fill="#fff"/>
    <path id="Path_681" data-name="Path 681" d="M17,46H36.992v3.332H17Z" transform="translate(9.99 29.305)" fill="#fff"/>
    <path id="Path_682" data-name="Path 682" d="M17,50H36.992v3.332H17Z" transform="translate(9.99 31.97)" fill="#fff"/>
    <path id="Path_683" data-name="Path 683" d="M22,15H25.33A1.666,1.666,0,0,1,27,16.664h3.332a5,5,0,0,0-5-5V10H22v1.666a5,5,0,1,0,0,10H25.33a1.666,1.666,0,0,1,0,3.332H22a1.666,1.666,0,0,1-1.666-1.666H17a5,5,0,0,0,5,5v1.666H25.33V28.326a5,5,0,0,0,0-10H22A1.666,1.666,0,1,1,22,15Z" transform="translate(9.99 5.328)" fill="#fff"/>
    <path id="Path_684" data-name="Path 684" d="M22.33,28a8.33,8.33,0,1,0,8.33,8.33A8.33,8.33,0,0,0,22.33,28Zm0,13.328a5,5,0,1,1,5-5A5,5,0,0,1,22.33,41.328Z" transform="translate(7.992 17.317)" fill="#fff"/>
    <path id="Path_685" data-name="Path 685" d="M6,29.666v5H9.332V31.332h3.332V28h-5A1.666,1.666,0,0,0,6,29.666Z" transform="translate(2.664 17.317)" fill="#fff"/>
    <path id="Path_686" data-name="Path 686" d="M34,28H29v3.332h3.332v3.332h3.332v-5A1.666,1.666,0,0,0,34,28Z" transform="translate(17.983 17.317)" fill="#fff"/>
    <path id="Path_687" data-name="Path 687" d="M9.332,34H6v5a1.666,1.666,0,0,0,1.666,1.666h5V37.332H9.332Z" transform="translate(2.664 21.313)" fill="#fff"/>
    <path id="Path_688" data-name="Path 688" d="M32.332,37.332H29v3.332h5A1.666,1.666,0,0,0,35.664,39V34H32.332Z" transform="translate(17.983 21.313)" fill="#fff"/>
    <path id="Path_689" data-name="Path 689" d="M31,46h6.664v3.332H31Z" transform="translate(19.315 29.305)" fill="#fff"/>
    <path id="Path_690" data-name="Path 690" d="M31,50h6.664v3.332H31Z" transform="translate(19.315 31.97)" fill="#fff"/>
  </g>
</svg>
