<svg xmlns="http://www.w3.org/2000/svg" width="86.712" height="100.052" viewBox="0 0 86.712 100.052">
  <g id="blueprint" transform="translate(-40.641)">
    <g id="Page-1_40_" transform="translate(40.641 0)">
      <g id="_x30_41---House-Grid-Blueprints" transform="translate(0 0)">
        <path id="Shape_108_" d="M40.641,10.005V90.047a10.015,10.015,0,0,0,10.005,10.005h73.372a3.335,3.335,0,0,0,3.335-3.335V20.01a3.335,3.335,0,0,0-3.335-3.335H60.651v-6.67a10.005,10.005,0,0,0-20.01,0Zm3.335,80.042a6.67,6.67,0,1,1,13.34,0v6.67h-6.67A6.67,6.67,0,0,1,43.976,90.047Zm66.7,6.67H100.672V86.712h10.005ZM93.489,32.861,119,55.774l-1.181,1.392c-.018.018-.032.04-.05.06l-.962,1.137L93.447,37.46a1.667,1.667,0,0,0-2.225,0l-23.345,20.9L65.671,55.7l10.56-9.457c.018-.018.038-.032.057-.05L91.1,32.927a1.4,1.4,0,0,0,.115-.1l1.116-1Zm3.849,50.516H87.332V70.036A1.668,1.668,0,0,1,89,68.369h6.67a1.668,1.668,0,0,1,1.667,1.667v13.34ZM95.67,65.034H89a5,5,0,0,0-5,5v13.34H73.992a1.668,1.668,0,0,1-1.667-1.667V58.847L92.335,40.94l20.01,17.908V81.709a1.668,1.668,0,0,1-1.667,1.667H100.672V70.036a5,5,0,0,0-5-5ZM70.657,46.749l-7.21,6.445a3.413,3.413,0,0,0-.979,3.5H60.651V46.691H70.657Zm-5.74,13.282.425.5A3.3,3.3,0,0,0,67.65,61.7a3.366,3.366,0,0,0,1.334-.192v8.529H60.652V60.031Zm4.072,13.34v8.338a4.949,4.949,0,0,0,.307,1.667H60.651V73.372ZM115.68,61.5a3.3,3.3,0,0,0,1.112.2,2.054,2.054,0,0,0,.227-.008,3.309,3.309,0,0,0,2.308-1.167l.425-.5h4.266V70.028H115.68Zm6.522-4.8a3.415,3.415,0,0,0-.979-3.5l-5.543-4.953V46.691h8.338V56.7Zm-9.857-16.675v5.236l-5-4.477v-.759h5Zm-26.717-6.67L74.455,43.356h-.464V33.351ZM70.657,43.356H60.651V33.351H70.657ZM60.651,90.047V86.712H70.657V96.717H60.651Zm13.34-3.335H84V96.717H73.992Zm13.34,0H97.337V96.717H87.332Zm28.348-5V73.372h8.338V83.377h-8.644A4.952,4.952,0,0,0,115.68,81.709Zm8.338-38.353H115.68V40.021a3.324,3.324,0,0,0-1.667-2.871v-3.8h10.005Zm-13.34-6.67h-3.335a3.335,3.335,0,0,0-2.818,1.571l-5.483-4.906h11.636Zm-5-6.67h-5V20.01h10.005V30.016Zm-8.338,0H95.315l-.764-.684a3.32,3.32,0,0,0-4.432,0l-.764.684H87.332V20.01H97.338V30.016Zm-13.34,0H73.992V20.01H84Zm-13.34,0H60.651V20.01H70.657Zm43.356,66.7V86.712h10.005V96.717Zm10.005-66.7H114.013V20.01h10.005ZM50.646,3.335a6.67,6.67,0,0,1,6.67,6.67v72.6a9.947,9.947,0,0,0-13.34,0v-72.6a6.67,6.67,0,0,1,6.67-6.67Z" transform="translate(-40.641 0)" fill="#fff"/>
      </g>
    </g>
  </g>
</svg>
