<svg id="chronometer" xmlns="http://www.w3.org/2000/svg" width="28.437" height="32.179" viewBox="0 0 28.437 32.179">
  <path id="Path_15" data-name="Path 15" d="M55.594,9.768l.774-.868a2.722,2.722,0,0,0-4.052-3.637L51.656,6A14.041,14.041,0,0,0,47,4.074V1.885h1.8A.943.943,0,0,0,48.8,0H39.158a.943.943,0,0,0,0,1.885h1.789v2.19a14.058,14.058,0,0,0-5.587,2.586L34.13,5.334l.634-.622a.943.943,0,1,0-1.32-1.346L30.865,5.9a.943.943,0,0,0,1.32,1.346l.6-.587L33.941,7.9l-.012.012c-8.912,8.932-2.565,24.251,10.05,24.263A14.242,14.242,0,0,0,55.594,9.768ZM53.719,6.523a.837.837,0,1,1,1.243,1.12l-.575.645c-.117-.126-.236-.251-.358-.373q-.413-.413-.854-.787ZM42.833,1.885h2.284V3.8a14.371,14.371,0,0,0-2.284,0Zm1.146,28.408A12.342,12.342,0,0,1,31.652,17.966c.677-16.354,23.98-16.349,24.655,0A12.341,12.341,0,0,1,43.979,30.293Z" transform="translate(-29.766 0)" fill="#0061a7"/>
  <path id="Path_16" data-name="Path 16" d="M241.579,207.984a.943.943,0,0,0-.943.943V212.9a.943.943,0,0,0,.943.943h1.64a.943.943,0,0,0,0-1.885h-.7v-3.028A.943.943,0,0,0,241.579,207.984Z" transform="translate(-227.383 -194.912)" fill="#0061a7"/>
  <path id="Path_17" data-name="Path 17" d="M190.387,392.562a8.49,8.49,0,0,1-2.52.675v-.97a.943.943,0,0,0-1.885,0v.969a8.5,8.5,0,0,1-2.376-.613.943.943,0,0,0-.729,1.739,10.513,10.513,0,0,0,8.273-.076.943.943,0,0,0-.761-1.725Z" transform="translate(-172.71 -366.735)" fill="#0061a7"/>
  <path id="Path_18" data-name="Path 18" d="M360.7,218.524a.943.943,0,0,0-1.767.659,8.514,8.514,0,0,1,.487,2.056h-1.23a.943.943,0,0,0,0,1.885h1.23a8.511,8.511,0,0,1-.528,2.165.943.943,0,0,0,1.758.683A10.522,10.522,0,0,0,360.7,218.524Z" transform="translate(-336.666 -204.216)" fill="#0061a7"/>
  <path id="Path_19" data-name="Path 19" d="M188.212,121.673a8.511,8.511,0,0,1,2.115-.509V122.3a.943.943,0,0,0,1.885,0v-1.133a8.51,8.51,0,0,1,2.2.543.943.943,0,1,0,.691-1.754,10.521,10.521,0,0,0-7.567-.042A.943.943,0,0,0,188.212,121.673Z" transform="translate(-177.056 -111.734)" fill="#0061a7"/>
  <path id="Path_20" data-name="Path 20" d="M92.347,220.377H91.222a8.516,8.516,0,0,1,.506-2.107.943.943,0,0,0-1.762-.67,10.523,10.523,0,0,0,0,7.428.943.943,0,0,0,1.763-.668,8.513,8.513,0,0,1-.5-2.1h1.125A.943.943,0,0,0,92.347,220.377Z" transform="translate(-85.545 -203.354)" fill="#0061a7"/>
</svg>
