<svg xmlns="http://www.w3.org/2000/svg" width="100.165" height="94.107" viewBox="0 0 100.165 94.107">
  <g id="coins" transform="translate(0 -15.483)">
    <path id="Path_706" data-name="Path 706" d="M170.77,74.436a1.467,1.467,0,0,0-2.794.9,17.4,17.4,0,0,0,18.008,11.9c9.136-.624,16.66-9.492,15.605-18.744a17.26,17.26,0,0,0-34.231-1.145,1.467,1.467,0,0,0,2.9.458,14.327,14.327,0,1,1,.514,6.636Z" transform="translate(-134.602 -30.022)" fill="#fff"/>
    <path id="Path_707" data-name="Path 707" d="M234.686,103.894a3.547,3.547,0,0,1-2.573-.671,1.467,1.467,0,0,0-1.605,2.456,6.018,6.018,0,0,0,2.8,1.091v.761a1.467,1.467,0,1,0,2.935,0v-.946a5.09,5.09,0,0,0,3.4-3.957,4.49,4.49,0,0,0-3.052-5.081c-.44-.155-.839-.274-1.191-.379-1-.3-1.415-.435-1.8-.9a1.334,1.334,0,0,1-.163-1.064,1.73,1.73,0,0,1,.874-1.2,2.015,2.015,0,0,1,2.042.422,1.467,1.467,0,0,0,1.868-2.263,5.621,5.621,0,0,0-1.973-1.052v-.632a1.467,1.467,0,1,0-2.935,0v.758a4.778,4.778,0,0,0-2.752,3.387,4.217,4.217,0,0,0,.791,3.534,5.922,5.922,0,0,0,3.215,1.824c.335.1.681.2,1.051.333a1.542,1.542,0,0,1,1.135,1.828,2.078,2.078,0,0,1-2.063,1.751Z" transform="translate(-184.878 -59.143)" fill="#fff"/>
    <path id="Path_708" data-name="Path 708" d="M10.04,106.656H2.935v-3.913c20.97,0,57,0,78.027,0a1.467,1.467,0,1,0,0-2.935l-6.034,0V91.5a4.407,4.407,0,0,0-4.4-4.4H69.255V77.309h1.757a4.407,4.407,0,0,0,4.4-4.4V66.06a4.407,4.407,0,0,0-4.4-4.4H61.5A24.549,24.549,0,0,0,71.748,28.791a1.467,1.467,0,1,0-2.611,1.34,21.5,21.5,0,1,1-4.285-5.739,1.467,1.467,0,1,0,2.025-2.124,24.57,24.57,0,1,0-28.632,39.39H30.124a4.407,4.407,0,0,0-4.4,4.4v8.314H23.965a4.407,4.407,0,0,0-4.4,4.4v6.847a4.407,4.407,0,0,0,4.4,4.4h1.272v9.786l-22.791,0A2.448,2.448,0,0,0,0,102.254v4.891a2.448,2.448,0,0,0,2.445,2.445H10.04a1.467,1.467,0,1,0,0-2.935ZM33.826,77.309h8.8v9.786h-8.8Zm17.9-2.935V64.592h8.8v9.782Zm8.318,15.655v9.782h-8.8V90.029ZM45.564,87.094V77.309h8.8v9.786Zm3.225-22.5v9.782h-8.8V64.592ZM48.3,90.029v9.782H39.5V90.029ZM71.994,91.5v6.847a1.468,1.468,0,0,1-1.426,1.465c-.331,0-7.163,0-7.592,0V90.029h7.551A1.469,1.469,0,0,1,71.994,91.5ZM66.32,78.776v6.847a1.469,1.469,0,0,1-1.467,1.467c-.028,0-.054,0-.081,0H57.3V77.309h7.551a1.469,1.469,0,0,1,1.467,1.467ZM72.479,66.06v6.847a1.469,1.469,0,0,1-1.467,1.467H63.462V64.592h7.551A1.469,1.469,0,0,1,72.479,66.06ZM28.657,72.907V66.06a1.469,1.469,0,0,1,1.467-1.467h6.926v9.782H30.125A1.469,1.469,0,0,1,28.657,72.907ZM22.5,85.623V78.776a1.469,1.469,0,0,1,1.467-1.467h6.926v9.786c-.191-.005-6.662,0-6.926,0A1.469,1.469,0,0,1,22.5,85.623Zm5.673,12.72V91.5a1.469,1.469,0,0,1,1.467-1.467h6.926v9.782c-.827,0-6.021,0-6.968,0A1.468,1.468,0,0,1,28.171,98.343Z" transform="translate(0 0)" fill="#fff"/>
    <path id="Path_709" data-name="Path 709" d="M161.1,446.518h-9.915a1.467,1.467,0,1,0,0,2.935h9.426v3.913H80.265a1.467,1.467,0,1,0,0,2.935H161.1a2.448,2.448,0,0,0,2.445-2.445v-4.891A2.448,2.448,0,0,0,161.1,446.518Z" transform="translate(-63.382 -346.709)" fill="#fff"/>
  </g>
</svg>
