<svg xmlns="http://www.w3.org/2000/svg" width="102.271" height="102.184" viewBox="0 0 102.271 102.184">
  <g id="construction-budget" transform="translate(-564.033 -563.965)">
    <path id="Path_710" data-name="Path 710" d="M567.982,607.956a3.063,3.063,0,0,0,4.278.645l42.022-31.014a1.308,1.308,0,0,1,1.56,0L651.364,603.8v39.255a.873.873,0,0,0,1.745,0V605.091l4.756,3.51a3.037,3.037,0,0,0,1.81.6,3.108,3.108,0,0,0,.462-.035,3.039,3.039,0,0,0,2.005-1.208l2.6-3.518a3.062,3.062,0,0,0-.645-4.278l-15.55-11.476v-20.6a2.038,2.038,0,0,0-2.036-2.036h-8.482a2.038,2.038,0,0,0-2.036,2.036v11.334l-19.112-14.105a3.059,3.059,0,0,0-3.633,0L566.03,600.16a3.059,3.059,0,0,0-.645,4.278Zm69.754-39.871a.291.291,0,0,1,.291-.291h8.482a.291.291,0,0,1,.291.291V587.4l-9.064-6.69Zm-71.189,34.341a1.305,1.305,0,0,1,.519-.861l47.216-34.847a1.307,1.307,0,0,1,1.56,0l20.5,15.128,0,0,10.807,7.976,0,0,15.907,11.74a1.315,1.315,0,0,1,.277,1.837l-2.6,3.518a1.314,1.314,0,0,1-1.837.277l-6.142-4.533h0l-35.879-26.48a3.059,3.059,0,0,0-3.633,0L571.224,607.2a1.315,1.315,0,0,1-1.837-.277l-2.6-3.518a1.305,1.305,0,0,1-.242-.976Z" fill="#fff" stroke="#fff" stroke-width="1.5"/>
    <path id="Path_711" data-name="Path 711" d="M1081.577,2522.606a4.254,4.254,0,0,0-2.727-.951h0l-3.762,0h0a2.508,2.508,0,0,1-1.61-.547,1.5,1.5,0,0,1-.586-1.14l0-3.139a1.5,1.5,0,0,1,.585-1.141,2.508,2.508,0,0,1,1.611-.548h3.763a2.508,2.508,0,0,1,1.61.546,1.5,1.5,0,0,1,.586,1.141.872.872,0,0,0,.873.872h0a.872.872,0,0,0,.872-.873,3.21,3.21,0,0,0-1.214-2.48,4.255,4.255,0,0,0-2.728-.951h-1.011v-2.185a.872.872,0,0,0-.873-.872h0a.873.873,0,0,0-.872.873v2.185h-1.008a4.253,4.253,0,0,0-2.729.954,3.209,3.209,0,0,0-1.211,2.481l0,3.139a3.209,3.209,0,0,0,1.214,2.48,4.255,4.255,0,0,0,2.728.951h0l3.762,0h0a2.508,2.508,0,0,1,1.61.547,1.5,1.5,0,0,1,.586,1.141l0,3.138a1.5,1.5,0,0,1-.585,1.141,2.509,2.509,0,0,1-1.611.549h-3.763a2.508,2.508,0,0,1-1.61-.547,1.5,1.5,0,0,1-.586-1.141v-.127a.872.872,0,0,0-.873-.872h0a.872.872,0,0,0-.872.873v.127a3.209,3.209,0,0,0,1.214,2.48,4.252,4.252,0,0,0,2.727.952h1.011v2.185a.872.872,0,0,0,.873.872h0a.872.872,0,0,0,.872-.873v-2.185h1.008a4.259,4.259,0,0,0,2.729-.954,3.21,3.21,0,0,0,1.211-2.481l0-3.139A3.211,3.211,0,0,0,1081.577,2522.606Z" transform="translate(-488.594 -1877.382)" fill="#fff" stroke="#fff" stroke-width="1.5"/>
    <path id="Path_712" data-name="Path 712" d="M611.025,1845.711a31.27,31.27,0,0,0-11.618-19.508l-2.8-2.185a2.15,2.15,0,0,1-.417-2.976l5.95-8.151a2.41,2.41,0,0,0-1.947-3.831h-2.1a15.01,15.01,0,0,0-7.747,2.387,1.691,1.691,0,0,1-1.732,0,15.011,15.011,0,0,0-7.747-2.387h-2.1a2.41,2.41,0,0,0-1.947,3.831l5.95,8.151a2.179,2.179,0,0,1,.326.652h-.339a9.748,9.748,0,0,1-6.273-2.542,4.457,4.457,0,0,0-3.338-1.045,4.363,4.363,0,0,0-2.911,1.536,4.746,4.746,0,0,0-1.132,3.079v6.058a.873.873,0,0,0,1.745,0v-6.058a2.842,2.842,0,0,1,2.464-2.877,2.727,2.727,0,0,1,2.042.637,11.461,11.461,0,0,0,7.4,2.958h.115a2.177,2.177,0,0,1-.518.579l-2.8,2.185a31.271,31.271,0,0,0-11.618,19.508l-1.891,11.312a7.792,7.792,0,0,0,7.685,9.076h31.506a7.792,7.792,0,0,0,7.685-9.076Zm-26.847-25.7-5.95-8.151a.665.665,0,0,1,.537-1.057h2.1a13.331,13.331,0,0,1,6.854,2.141,3.436,3.436,0,0,0,3.518,0,13.331,13.331,0,0,1,6.854-2.141h2.1a.665.665,0,0,1,.537,1.057l-5.95,8.151a3.891,3.891,0,0,0-.7,1.681h-9.194A3.889,3.889,0,0,0,584.179,1820.013Zm25.667,42.2a6.036,6.036,0,0,1-4.615,2.139H573.725a6.047,6.047,0,0,1-5.964-7.044L569.652,1846a29.452,29.452,0,0,1,10.97-18.419l2.8-2.185a3.881,3.881,0,0,0,1.339-1.955h9.427a3.882,3.882,0,0,0,1.339,1.955l2.8,2.185A29.452,29.452,0,0,1,609.3,1846l1.891,11.312A6.036,6.036,0,0,1,609.846,1862.214Z" transform="translate(-1.106 -1200.7)" fill="#fff" stroke="#fff" stroke-width="1.5"/>
    <path id="Path_713" data-name="Path 713" d="M1962.173,2883.5h-13.8v-8.089a.873.873,0,0,0-.873-.873h-29.339a.873.873,0,0,0-.873.873v8.089h-4.819a.873.873,0,0,0,0,1.745h19.489v7.216h-21.554a.873.873,0,0,0,0,1.745h51.766a.873.873,0,0,0,.873-.873v-8.961A.873.873,0,0,0,1962.173,2883.5Zm-43.136,0v-7.216h27.594v7.216h-27.594Zm42.264,8.961h-27.594v-7.216H1961.3Z" transform="translate(-1297.581 -2228.808)" fill="#fff" stroke="#fff" stroke-width="1.5"/>
    <path id="Path_714" data-name="Path 714" d="M1902.028,1485.651l8.79,8.79a4.487,4.487,0,0,0,6.346-6.346l-8.79-8.79a.873.873,0,0,0-1.234,0l-1.938,1.938-2.091-2.091a9.1,9.1,0,0,0-.588-12.224,17.2,17.2,0,0,0-4.712-2.817c-1.8-.825-4.07-1.734-6.741-2.7-4.533-1.643-8.728-2.908-8.77-2.921a.872.872,0,0,0-1.087,1.087c.012.042,1.278,4.237,2.921,8.77.968,2.672,1.877,4.94,2.7,6.742a17.2,17.2,0,0,0,2.817,4.712,9.1,9.1,0,0,0,12.225.587l2.091,2.091-1.939,1.94a.873.873,0,0,0,0,1.234Zm-11.142-7.086c-2.26-2.26-5.827-12.559-7.517-17.92,5.361,1.691,15.66,5.258,17.92,7.517a7.366,7.366,0,0,1,.581,9.748l-3.5-3.5a.873.873,0,0,0-1.234,1.234l3.5,3.5A7.366,7.366,0,0,1,1890.886,1478.565Zm14.869,4.594a.855.855,0,0,0,.068-.061c.021-.022.042-.044.061-.068l1.874-1.874,8.173,8.173a2.742,2.742,0,0,1-3.878,3.878l-8.173-8.173Z" transform="translate(-1270.217 -862.389)" fill="#fff" stroke="#fff" stroke-width="1.5"/>
    <path id="Path_715" data-name="Path 715" d="M1689.287,1875.59a.872.872,0,0,0-.69.339c-.038.049-.938,1.216-1.853,2.651-1.308,2.053-1.944,3.542-1.944,4.553a4.487,4.487,0,1,0,8.975,0c0-1.011-.636-2.5-1.944-4.553-.915-1.435-1.815-2.6-1.853-2.651A.872.872,0,0,0,1689.287,1875.59Zm2.742,7.543a2.742,2.742,0,1,1-5.484,0c0-.3.162-1.246,1.664-3.6.382-.6.766-1.156,1.078-1.595.313.438.7,1,1.078,1.595C1691.867,1881.887,1692.03,1882.835,1692.03,1883.133Z" transform="translate(-1080.729 -1264.897)" fill="#fff" stroke="#fff" stroke-width="1.5"/>
  </g>
</svg>
