<svg xmlns="http://www.w3.org/2000/svg" width="100.052" height="100.052" viewBox="0 0 100.052 100.052">
  <g id="crane" transform="translate(-0.001 0)">
    <g id="Page-1_21_" transform="translate(0.001 0)">
      <g id="_x30_22---Lowering-House" transform="translate(0 0)">
        <path id="Shape_52_" d="M5,36.686H21.679a5,5,0,0,0,5-5v-5h3.335V86.712H18.344a8.348,8.348,0,0,0-8.338,8.338v1.667a3.335,3.335,0,0,0,3.335,3.335H60.032a3.335,3.335,0,0,0,3.335-3.335V95.049a8.348,8.348,0,0,0-8.338-8.338H43.357V55.028H53.539a4.336,4.336,0,0,0,2.593-.865l8.838-6.632A4.336,4.336,0,0,0,66.7,44.076V26.68H76.708V43.132a3.311,3.311,0,0,0-.45.25L57.936,58.2a3.323,3.323,0,0,0-.475,4.708L59.6,65.486a3.345,3.345,0,0,0,2.1,1.167V81.709a5,5,0,0,0,5,5H90.048a5,5,0,0,0,5-5V66.651a3.335,3.335,0,0,0,2.1-1.167L99.289,62.9a3.325,3.325,0,0,0-.474-4.707l-3.765-3.042V46.691a3.335,3.335,0,0,0-3.335-3.335H88.38a3.335,3.335,0,0,0-3.335,3.335v.374l-4.552-3.682a3.32,3.32,0,0,0-.45-.248V26.68H96.718A3.335,3.335,0,0,0,99.493,21.5l-4.442-6.67a3.335,3.335,0,0,0-2.781-1.486H78.6L43.155,3.669A5,5,0,0,0,38.354,0H35.019a5,5,0,0,0-4.836,3.784l-25.595,9.6A4.993,4.993,0,0,0,0,18.343v13.34a5,5,0,0,0,5,5ZM75.04,83.377V75.039a1.668,1.668,0,0,1,1.667-1.667h3.335a1.668,1.668,0,0,1,1.667,1.667v8.338Zm15.008,0h-5V75.039a5,5,0,0,0-5-5H76.707a5,5,0,0,0-5,5v8.338h-5a1.668,1.668,0,0,1-1.667-1.667V65.367l13.34-10.58,13.34,10.58V81.709a1.668,1.668,0,0,1-1.668,1.667ZM88.38,46.691h3.335v5.766l-3.335-2.7Zm8.338,14.087-2.134,2.58a.035.035,0,0,1-.037,0l-.025-.017L79.412,51.36a1.668,1.668,0,0,0-2.074,0L62.163,63.366l-2.131-2.575L78.4,45.975ZM14.2,13.34,30.017,7.409V13.34ZM43.357,7.185,65.922,13.34H43.357Zm35.018,9.49H87.69l-5.98,5.98-5.98-5.98Zm-22.368,6.67H44.047l5.98-5.98Zm-1.954-6.67h11.96l-5.98,5.98Zm10.005,6.67,6.67-6.67h.287l6.67,6.67ZM46,16.675l-5.98,5.98-5.98-5.98Zm-19.32,0h2.645L36,23.345H26.681v-6.67ZM60.032,95.049v1.667H13.341V95.049a5,5,0,0,1,5-5H55.03a5,5,0,0,1,5,5Zm-26.68-8.338V26.68h6.67V86.712h-6.67ZM54.129,51.5a.989.989,0,0,1-.59.2H43.357v-6.67H62.762Zm9.238-9.809H43.357V26.68h20.01ZM96.718,23.345H85.729l6.588-6.588ZM33.352,5a1.668,1.668,0,0,1,1.667-1.667h3.335A1.668,1.668,0,0,1,40.022,5V13.34h-6.67ZM3.336,18.343A1.668,1.668,0,0,1,5,16.675H8.339v5a1.667,1.667,0,1,0,3.335,0v-5h3.335v5a1.667,1.667,0,1,0,3.335,0v-5h5V31.683a1.668,1.668,0,0,1-1.667,1.667H5a1.668,1.668,0,0,1-1.667-1.667Z" transform="translate(-0.001 0)" fill="#fff"/>
        <g id="Group_20" data-name="Group 20" transform="translate(46.67 30.016)">
          <path id="Path_38_" d="M288.9,183.377a1.668,1.668,0,0,0-2.358,0l-1.668,1.667a1.667,1.667,0,1,0,2.358,2.358l1.667-1.667A1.667,1.667,0,0,0,288.9,183.377Z" transform="translate(-284.366 -182.888)" fill="#fff" fill-rule="evenodd"/>
          <path id="Path_37_" d="M311.866,183.479l-6.67,6.67a1.667,1.667,0,1,0,2.358,2.358l6.67-6.67a1.667,1.667,0,0,0-2.358-2.358Z" transform="translate(-301.351 -182.991)" fill="#fff" fill-rule="evenodd"/>
        </g>
      </g>
    </g>
  </g>
</svg>
