<svg id="finance" xmlns="http://www.w3.org/2000/svg" width="100.78" height="100.78" viewBox="0 0 100.78 100.78">
  <g id="Page-1_22_" transform="translate(0 0)">
    <g id="_x30_23---House-Finance-Documents" transform="translate(0 0)">
      <path id="Path_41_" d="M174.406,54.161h6.719a1.68,1.68,0,0,0,0-3.359h-6.719a1.68,1.68,0,1,0,0,3.359Z" transform="translate(-144.172 -42.404)" fill="#fff" fill-rule="evenodd"/>
      <path id="Shape_62_" d="M95.741,33.593H73.905V21.836A5.039,5.039,0,0,0,68.866,16.8h-1.68v-1.68a5.039,5.039,0,0,0-5.039-5.039H55.12a5.039,5.039,0,0,0-4.73-3.359H48.71V5.039A5.039,5.039,0,0,0,43.671,0H23.515a5.039,5.039,0,0,0-5.039,5.039v1.68H16.8a5.039,5.039,0,0,0-4.73,3.359H5.039A5.039,5.039,0,0,0,0,15.117V89.022a5.039,5.039,0,0,0,5.039,5.039h1.68v1.68a5.039,5.039,0,0,0,5.039,5.039H95.741a5.039,5.039,0,0,0,5.039-5.039V38.632a5.039,5.039,0,0,0-5.039-5.039ZM68.866,20.156a1.68,1.68,0,0,1,1.68,1.68V33.593H67.186V20.156h1.68ZM16.8,10.078h3.359a1.68,1.68,0,0,0,1.68-1.68V5.039a1.68,1.68,0,0,1,1.68-1.68H43.671a1.68,1.68,0,0,1,1.68,1.68V8.4a1.68,1.68,0,0,0,1.68,1.68H50.39a1.68,1.68,0,0,1,1.68,1.68V16.8H15.117V11.758A1.68,1.68,0,0,1,16.8,10.078ZM3.359,89.022V15.117a1.68,1.68,0,0,1,1.68-1.68h6.719V16.8a3.359,3.359,0,0,0,3.359,3.359H52.069A3.359,3.359,0,0,0,55.429,16.8V13.437h6.719a1.68,1.68,0,0,1,1.68,1.68V33.593h-8.4a5.039,5.039,0,0,0-5.039,5.039V90.7H5.039a1.68,1.68,0,0,1-1.68-1.68Zm6.719,6.719v-1.68H50.39v1.68a4.98,4.98,0,0,0,.309,1.68H11.758A1.679,1.679,0,0,1,10.078,95.741Zm87.342,0a1.68,1.68,0,0,1-1.68,1.68H55.429a1.68,1.68,0,0,1-1.68-1.68V38.632a1.68,1.68,0,0,1,1.68-1.68H95.741a1.68,1.68,0,0,1,1.68,1.68V95.741Z" transform="translate(0 0)" fill="#fff"/>
      <path id="Shape_61_" d="M380.725,243.848H347.132a1.68,1.68,0,0,0-1.68,1.68v10.078a1.68,1.68,0,0,0,1.68,1.68h33.593a1.68,1.68,0,0,0,1.68-1.68V245.528A1.68,1.68,0,0,0,380.725,243.848Zm-1.68,10.078H348.811v-6.719h30.234Z" transform="translate(-288.343 -203.536)" fill="#fff"/>
      <path id="Shape_60_" d="M352.17,345.451H348.81a3.359,3.359,0,0,0-3.359,3.359v3.359a3.359,3.359,0,0,0,3.359,3.359h3.359a3.359,3.359,0,0,0,3.359-3.359V348.81a3.359,3.359,0,0,0-3.359-3.359Zm-3.359,6.719V348.81h3.359v3.359Z" transform="translate(-288.343 -288.343)" fill="#fff"/>
      <path id="Shape_59_" d="M352.17,426.734H348.81a3.359,3.359,0,0,0-3.359,3.359v3.359a3.359,3.359,0,0,0,3.359,3.359h3.359a3.359,3.359,0,0,0,3.359-3.359v-3.359a3.359,3.359,0,0,0-3.359-3.359Zm-3.359,6.719v-3.359h3.359v3.359Z" transform="translate(-288.343 -356.188)" fill="#fff"/>
      <path id="Shape_58_" d="M352.17,508.017H348.81a3.359,3.359,0,0,0-3.359,3.359v3.359a3.359,3.359,0,0,0,3.359,3.359h3.359a3.359,3.359,0,0,0,3.359-3.359v-3.359a3.359,3.359,0,0,0-3.359-3.359Zm-3.359,6.719v-3.359h3.359v3.359Z" transform="translate(-288.343 -424.034)" fill="#fff"/>
      <path id="Shape_57_" d="M433.453,345.451h-3.359a3.359,3.359,0,0,0-3.359,3.359v3.359a3.359,3.359,0,0,0,3.359,3.359h3.359a3.359,3.359,0,0,0,3.359-3.359V348.81a3.36,3.36,0,0,0-3.359-3.359Zm-3.359,6.719V348.81h3.359v3.359Z" transform="translate(-356.188 -288.343)" fill="#fff"/>
      <path id="Shape_56_" d="M433.453,426.734h-3.359a3.359,3.359,0,0,0-3.359,3.359v3.359a3.359,3.359,0,0,0,3.359,3.359h3.359a3.359,3.359,0,0,0,3.359-3.359v-3.359a3.36,3.36,0,0,0-3.359-3.359Zm-3.359,6.719v-3.359h3.359v3.359Z" transform="translate(-356.188 -356.188)" fill="#fff"/>
      <path id="Shape_55_" d="M433.453,508.017h-3.359a3.359,3.359,0,0,0-3.359,3.359v3.359a3.359,3.359,0,0,0,3.359,3.359h3.359a3.359,3.359,0,0,0,3.359-3.359v-3.359a3.36,3.36,0,0,0-3.359-3.359Zm-3.359,6.719v-3.359h3.359v3.359Z" transform="translate(-356.188 -424.034)" fill="#fff"/>
      <path id="Shape_54_" d="M514.735,345.451h-3.359a3.359,3.359,0,0,0-3.359,3.359v3.359a3.359,3.359,0,0,0,3.359,3.359h3.359a3.359,3.359,0,0,0,3.359-3.359V348.81A3.359,3.359,0,0,0,514.735,345.451Zm-3.359,6.719V348.81h3.359v3.359Z" transform="translate(-424.033 -288.343)" fill="#fff"/>
      <path id="Shape_53_" d="M514.735,426.734h-3.359a3.359,3.359,0,0,0-3.359,3.359v16.8a3.359,3.359,0,0,0,3.359,3.359h3.359a3.359,3.359,0,0,0,3.359-3.359v-16.8a3.359,3.359,0,0,0-3.359-3.359Zm-3.359,20.156v-16.8h3.359v16.8Z" transform="translate(-424.033 -356.188)" fill="#fff"/>
      <g id="money" transform="translate(8.102 38.881)">
        <g id="Group_22" data-name="Group 22" transform="translate(26.038 10.415)">
          <g id="Group_21" data-name="Group 21">
            <circle id="Ellipse_16" data-name="Ellipse 16" cx="1.736" cy="1.736" r="1.736" fill="#fff" stroke="#fff" stroke-width="0.5"/>
          </g>
        </g>
        <g id="Group_24" data-name="Group 24" transform="translate(8.679 10.415)">
          <g id="Group_23" data-name="Group 23">
            <circle id="Ellipse_17" data-name="Ellipse 17" cx="1.736" cy="1.736" r="1.736" fill="#fff" stroke="#fff" stroke-width="0.5"/>
          </g>
        </g>
        <g id="Group_26" data-name="Group 26" transform="translate(13.887 6.944)">
          <g id="Group_25" data-name="Group 25">
            <path id="Path_654" data-name="Path 654" d="M191.39,104.727a5.208,5.208,0,1,0,5.208,5.208A5.223,5.223,0,0,0,191.39,104.727Zm0,8.679a3.472,3.472,0,1,1,3.472-3.472A3.482,3.482,0,0,1,191.39,113.407Z" transform="translate(-186.182 -104.727)" fill="#fff" stroke="#fff" stroke-width="0.5"/>
          </g>
        </g>
        <g id="Group_28" data-name="Group 28" transform="translate(0 0)">
          <g id="Group_27" data-name="Group 27">
            <path id="Path_655" data-name="Path 655" d="M35.586,11.636H2.6A2.557,2.557,0,0,0,0,14.24V33.335a2.557,2.557,0,0,0,2.6,2.6H13.887a.868.868,0,1,0,0-1.736H2.6a.82.82,0,0,1-.868-.868V14.24a.82.82,0,0,1,.868-.868H35.586a.82.82,0,0,1,.868.868V28.127a.868.868,0,1,0,1.736,0V14.24A2.557,2.557,0,0,0,35.586,11.636Z" transform="translate(0 -11.636)" fill="#fff" stroke="#fff" stroke-width="0.5"/>
          </g>
        </g>
        <g id="Group_30" data-name="Group 30" transform="translate(3.472 3.472)">
          <g id="Group_29" data-name="Group 29">
            <path id="Path_656" data-name="Path 656" d="M76.838,59.919a.82.82,0,0,1-.868-.868.82.82,0,0,0-.868-.868H49.151a.82.82,0,0,0-.868.868.82.82,0,0,1-.868.868.82.82,0,0,0-.868.868V72.938a.82.82,0,0,0,.868.868.82.82,0,0,1,.868.868.82.82,0,0,0,.868.868h8.68a.868.868,0,1,0,0-1.736H49.845a2.536,2.536,0,0,0-1.562-1.562V61.481a2.536,2.536,0,0,0,1.562-1.562H74.408a2.536,2.536,0,0,0,1.562,1.562V68.6a.868.868,0,1,0,1.736,0V60.787A.82.82,0,0,0,76.838,59.919Z" transform="translate(-46.547 -58.183)" fill="#fff" stroke="#fff" stroke-width="0.5"/>
          </g>
        </g>
        <g id="Group_32" data-name="Group 32" transform="translate(26.927 15.623)">
          <g id="Group_31" data-name="Group 31">
            <path id="Path_657" data-name="Path 657" d="M364.451,221.091a6.713,6.713,0,0,0-2.951.694.855.855,0,1,0,.694,1.562,5.064,5.064,0,0,1,2.257-.521,5.166,5.166,0,0,1,4.253,8.159.918.918,0,0,0,.174,1.215,1.233,1.233,0,0,0,.521.174.789.789,0,0,0,.694-.347,7,7,0,0,0,1.215-3.993A6.835,6.835,0,0,0,364.451,221.091Z" transform="translate(-360.999 -221.091)" fill="#fff" stroke="#fff" stroke-width="0.5"/>
          </g>
        </g>
        <g id="Group_34" data-name="Group 34" transform="translate(29.51 19.963)">
          <g id="Group_33" data-name="Group 33">
            <path id="Path_658" data-name="Path 658" d="M396.505,279.273a.82.82,0,0,0-.868.868v.868a.868.868,0,1,0,1.736,0v-.868A.82.82,0,0,0,396.505,279.273Z" transform="translate(-395.637 -279.273)" fill="#fff" stroke="#fff" stroke-width="0.5"/>
          </g>
        </g>
        <g id="Group_36" data-name="Group 36" transform="translate(15.623 17.359)">
          <g id="Group_35" data-name="Group 35">
            <path id="Path_659" data-name="Path 659" d="M221.346,246.447a6.936,6.936,0,1,0-9.808,9.808.839.839,0,0,0,1.215,0,.839.839,0,0,0,0-1.215,5.217,5.217,0,0,1,3.645-8.94,5.048,5.048,0,0,1,3.732,1.562.859.859,0,0,0,1.215-1.215Z" transform="translate(-209.455 -244.364)" fill="#fff" stroke="#fff" stroke-width="0.5"/>
          </g>
        </g>
        <g id="Group_38" data-name="Group 38" transform="translate(19.963 22.567)">
          <g id="Group_37" data-name="Group 37">
            <path id="Path_660" data-name="Path 660" d="M274.58,314.182a6.944,6.944,0,1,0,6.944,6.944A6.964,6.964,0,0,0,274.58,314.182Zm0,12.151a5.208,5.208,0,1,1,5.208-5.208A5.223,5.223,0,0,1,274.58,326.333Z" transform="translate(-267.636 -314.182)" fill="#fff" stroke="#fff" stroke-width="0.5"/>
          </g>
        </g>
        <g id="Group_40" data-name="Group 40" transform="translate(26.038 26.906)">
          <g id="Group_39" data-name="Group 39">
            <path id="Path_661" data-name="Path 661" d="M349.959,372.364a.82.82,0,0,0-.868.868V376.7a.868.868,0,1,0,1.736,0v-3.472A.82.82,0,0,0,349.959,372.364Z" transform="translate(-349.091 -372.364)" fill="#fff" stroke="#fff" stroke-width="0.5"/>
          </g>
        </g>
        <g id="Group_42" data-name="Group 42" transform="translate(21.699 21.699)">
          <g id="Group_41" data-name="Group 41">
            <circle id="Ellipse_18" data-name="Ellipse 18" cx="0.868" cy="0.868" r="0.868" fill="#fff" stroke="#fff" stroke-width="0.5"/>
          </g>
        </g>
      </g>
    </g>
  </g>
</svg>
