<svg xmlns="http://www.w3.org/2000/svg" width="232.269" height="232.533" viewBox="0 0 232.269 232.533">
  <g id="Group_802" data-name="Group 802" transform="translate(-842.877 -363)">
    <g id="Group_169" data-name="Group 169" transform="translate(923.288 452.105)">
      <path id="Path_511" data-name="Path 511" d="M228.78,186.136l-38.69,38.69L176.662,211.4a5.806,5.806,0,0,0-8.211,8.211l17.534,17.534a5.733,5.733,0,0,0,4.106,1.691,5.939,5.939,0,0,0,4.106-1.691L236.943,194.4a5.807,5.807,0,0,0-8.163-8.26Z" transform="translate(-166.748 -184.475)" fill="#005199"/>
    </g>
    <g id="Group_227" data-name="Group 227" transform="translate(842.877 363)">
      <path id="Path_512" data-name="Path 512" d="M30.046,322.954a5.81,5.81,0,1,0-10.675,4.589,5.878,5.878,0,0,0,5.313,3.526A5.707,5.707,0,0,0,27,330.586,5.833,5.833,0,0,0,30.046,322.954Z" transform="translate(-9.904 -165.145)" fill="#005199"/>
      <path id="Path_513" data-name="Path 513" d="M16.485,279.966a5.793,5.793,0,1,0-5.7,6.956,4.763,4.763,0,0,0,1.159-.145A5.769,5.769,0,0,0,16.485,279.966Z" transform="translate(-2.719 -142.347)" fill="#005199"/>
      <path id="Path_514" data-name="Path 514" d="M113.911,46.047A5.993,5.993,0,0,0,117,45.178a5.783,5.783,0,1,0-7.97-1.835A5.7,5.7,0,0,0,113.911,46.047Z" transform="translate(-56.045 -17.832)" fill="#005199"/>
      <path id="Path_515" data-name="Path 515" d="M77.254,74.391A5.871,5.871,0,0,0,81.264,72.8a5.808,5.808,0,1,0-8.018-8.4h0a5.8,5.8,0,0,0,4.009,10Z" transform="translate(-37.067 -32.458)" fill="#005199"/>
      <path id="Path_516" data-name="Path 516" d="M6.069,240.547a5.813,5.813,0,0,0,5.8-5.8v-.242a5.8,5.8,0,1,0-11.593,0v.29a5.772,5.772,0,0,0,5.8,5.748Z" transform="translate(-0.273 -118.24)" fill="#005199"/>
      <path id="Path_517" data-name="Path 517" d="M73.358,396.778a5.809,5.809,0,1,0,8.211-.242A5.849,5.849,0,0,0,73.358,396.778Z" transform="translate(-37.228 -204.191)" fill="#005199"/>
      <path id="Path_518" data-name="Path 518" d="M9.471,194.142a4.765,4.765,0,0,0,1.159.145,5.736,5.736,0,0,0,5.651-4.637,5.816,5.816,0,0,0-11.4-2.318h0A5.98,5.98,0,0,0,9.471,194.142Z" transform="translate(-2.612 -94.44)" fill="#005199"/>
      <path id="Path_519" data-name="Path 519" d="M447.987,167.467h0a5.782,5.782,0,0,0,5.506,4.057,5.47,5.47,0,0,0,1.739-.29A5.77,5.77,0,0,0,459,163.99h0a5.774,5.774,0,1,0-11.013,3.478Z" transform="translate(-231.593 -82.691)" fill="#005199"/>
      <path id="Path_520" data-name="Path 520" d="M246.273,11.6h.29a5.8,5.8,0,0,0,.29-11.593,5.851,5.851,0,0,0-6.086,5.506A5.851,5.851,0,0,0,246.273,11.6Z" transform="translate(-124.6 0)" fill="#005199"/>
      <path id="Path_521" data-name="Path 521" d="M290.921,18.313a4.986,4.986,0,0,0,1.449.193,5.819,5.819,0,1,0-1.449-.193Z" transform="translate(-148.285 -3.575)" fill="#005199"/>
      <path id="Path_522" data-name="Path 522" d="M462.306,205.287a5.787,5.787,0,0,0,.58,11.544,2.351,2.351,0,0,0,.58-.048,5.777,5.777,0,1,0-1.159-11.5Z" transform="translate(-236.445 -106.116)" fill="#005199"/>
      <path id="Path_523" data-name="Path 523" d="M117.4,424.174a5.791,5.791,0,1,0-6.086,9.854,5.954,5.954,0,0,0,3.043.87,5.781,5.781,0,0,0,4.927-2.753A5.845,5.845,0,0,0,117.4,424.174Z" transform="translate(-56.254 -218.836)" fill="#005199"/>
      <path id="Path_524" data-name="Path 524" d="M200.2,13.936a5.25,5.25,0,0,0,.869-.048,5.793,5.793,0,1,0-6.666-4.83A5.935,5.935,0,0,0,200.2,13.936Z" transform="translate(-100.598 -1.226)" fill="#005199"/>
      <path id="Path_525" data-name="Path 525" d="M22.271,149.486a5.333,5.333,0,0,0,2.27.483,5.75,5.75,0,0,0,5.313-3.526,5.81,5.81,0,1,0-7.583,3.043Z" transform="translate(-9.809 -71.52)" fill="#005199"/>
      <path id="Path_526" data-name="Path 526" d="M43.748,108.505a6,6,0,0,0,3.333,1.014,5.908,5.908,0,0,0,4.782-2.463,5.8,5.8,0,1,0-8.115,1.449Z" transform="translate(-21.48 -50.633)" fill="#005199"/>
      <path id="Path_527" data-name="Path 527" d="M44.048,360.987a5.795,5.795,0,0,0,3.333,10.53,5.691,5.691,0,0,0,3.333-1.063,5.789,5.789,0,1,0-6.666-9.467Z" transform="translate(-21.635 -186.079)" fill="#005199"/>
      <path id="Path_528" data-name="Path 528" d="M435.236,129.024a5.776,5.776,0,1,0-5.072-2.946A5.922,5.922,0,0,0,435.236,129.024Z" transform="translate(-222.127 -60.718)" fill="#005199"/>
      <path id="Path_529" data-name="Path 529" d="M412.85,379.027a5.789,5.789,0,0,0-7.535,8.791,5.878,5.878,0,0,0,3.768,1.4,5.656,5.656,0,0,0,4.4-2.029A5.8,5.8,0,0,0,412.85,379.027Z" transform="translate(-208.629 -195.231)" fill="#005199"/>
      <path id="Path_530" data-name="Path 530" d="M408.683,91.019a5.8,5.8,0,1,0-4.4-2.029A5.783,5.783,0,0,0,408.683,91.019Z" transform="translate(-208.422 -41.069)" fill="#005199"/>
      <path id="Path_531" data-name="Path 531" d="M463.466,251.687a5.8,5.8,0,0,0-1.111,11.544c.193,0,.386.048.58.048a5.81,5.81,0,0,0,.531-11.593Z" transform="translate(-236.446 -130.104)" fill="#005199"/>
      <path id="Path_532" data-name="Path 532" d="M155.5,25.482a5.045,5.045,0,0,0,2.029-.386,5.792,5.792,0,1,0-7.439-3.429A5.7,5.7,0,0,0,155.5,25.482Z" transform="translate(-77.537 -7.169)" fill="#005199"/>
      <path id="Path_533" data-name="Path 533" d="M438.273,340.339a5.8,5.8,0,1,0,2.27,7.873A5.795,5.795,0,0,0,438.273,340.339Z" transform="translate(-222.265 -175.575)" fill="#005199"/>
      <path id="Path_534" data-name="Path 534" d="M455.432,297.322A5.79,5.79,0,1,0,452,308.384a5.4,5.4,0,0,0,1.739.242,5.771,5.771,0,0,0,1.691-11.3Z" transform="translate(-231.697 -153.569)" fill="#005199"/>
      <path id="Path_535" data-name="Path 535" d="M371.977,410.825h0a5.776,5.776,0,0,0-1.014,8.115,5.712,5.712,0,0,0,4.589,2.222,5.77,5.77,0,0,0,4.589-9.322A5.884,5.884,0,0,0,371.977,410.825Z" transform="translate(-191.279 -211.766)" fill="#005199"/>
      <path id="Path_536" data-name="Path 536" d="M246.773,457.406a5.851,5.851,0,0,0-5.506,6.086,5.79,5.79,0,0,0,5.8,5.506h.29a5.8,5.8,0,0,0-.58-11.593Z" transform="translate(-124.858 -236.466)" fill="#005199"/>
      <path id="Path_537" data-name="Path 537" d="M201.67,455.241a5.786,5.786,0,0,0-1.691,11.448,5.252,5.252,0,0,0,.869.048,5.778,5.778,0,0,0,.821-11.5Z" transform="translate(-100.96 -235.315)" fill="#005199"/>
      <path id="Path_538" data-name="Path 538" d="M157.926,444.027a5.792,5.792,0,1,0-4.009,10.868h0a5.887,5.887,0,0,0,1.98.338,5.783,5.783,0,0,0,2.029-11.206Z" transform="translate(-77.744 -229.366)" fill="#005199"/>
      <path id="Path_539" data-name="Path 539" d="M291.321,450.524a5.793,5.793,0,0,0,1.449,11.4,4.987,4.987,0,0,0,1.449-.193,5.787,5.787,0,0,0-2.9-11.206Z" transform="translate(-148.491 -232.82)" fill="#005199"/>
      <path id="Path_540" data-name="Path 540" d="M333.7,434.778a5.8,5.8,0,0,0,2.56,11.013,6,6,0,0,0,2.56-.58,5.811,5.811,0,0,0-5.12-10.433Z" transform="translate(-170.965 -224.465)" fill="#005199"/>
      <path id="Path_541" data-name="Path 541" d="M333.2,34.012a6,6,0,0,0,2.56.58,5.8,5.8,0,0,0,2.56-11.013h0a5.811,5.811,0,1,0-5.12,10.433Z" transform="translate(-170.716 -11.883)" fill="#005199"/>
      <path id="Path_542" data-name="Path 542" d="M371.577,57.88a5.8,5.8,0,1,0-1.014-8.163A5.772,5.772,0,0,0,371.577,57.88Z" transform="translate(-191.072 -24.546)" fill="#005199"/>
    </g>
  </g>
</svg>
