<svg id="Page-1" xmlns="http://www.w3.org/2000/svg" width="108.2" height="100.987" viewBox="0 0 108.2 100.987">
  <g id="_050---House-Building-Contract" data-name="050---House-Building-Contract" transform="translate(0)">
    <path id="Shape" d="M104.594,84.757H95.577V75.74a3.607,3.607,0,0,0-3.607-3.607H82.954V63.117a3.607,3.607,0,0,0-3.607-3.607H72.134V9.017A9.028,9.028,0,0,0,63.117,0H18.033a2.043,2.043,0,0,0-1.275.528L.528,16.758A1.971,1.971,0,0,0,0,18.033V84.757a9.028,9.028,0,0,0,9.017,9.017H28.853V97.38a3.607,3.607,0,0,0,3.607,3.607H54.1a3.567,3.567,0,0,0,1.8-.5,3.567,3.567,0,0,0,1.8.5h21.64a3.567,3.567,0,0,0,1.8-.5,3.567,3.567,0,0,0,1.8.5h21.64A3.607,3.607,0,0,0,108.2,97.38V88.364A3.607,3.607,0,0,0,104.594,84.757ZM79.347,63.117v9.017H57.707V63.117ZM16.23,6.157V10.82a5.41,5.41,0,0,1-5.41,5.41H6.157ZM28.853,88.364v1.8H9.017a5.41,5.41,0,0,1-5.41-5.41V19.837H10.82a9.028,9.028,0,0,0,9.017-9.017V3.607h43.28a5.41,5.41,0,0,1,5.41,5.41V59.51H57.707A3.607,3.607,0,0,0,54.1,63.117v9.017H45.083a3.607,3.607,0,0,0-3.607,3.607v9.017H32.46A3.607,3.607,0,0,0,28.853,88.364ZM54.1,97.38H32.46V88.364H54.1ZM45.083,84.757V75.74h21.64v9.017Zm34.263,3.607V97.38H57.707V88.364ZM70.33,84.757V75.74H91.97v9.017Zm34.263,3.607V97.38H82.954V88.364Z" transform="translate(0)" fill="#fff"/>
    <path id="Shape-2" data-name="Shape" d="M10.136,32.275a3.607,3.607,0,0,0,2.272,1.262V49.822a5.41,5.41,0,0,0,5.41,5.41H43.065a5.41,5.41,0,0,0,5.41-5.41V33.537a3.607,3.607,0,0,0,2.272-1.262l2.312-2.792a3.6,3.6,0,0,0-.512-5.091L48.475,21.1V11.952a3.607,3.607,0,0,0-3.607-3.607H41.262a3.607,3.607,0,0,0-3.607,3.607v.4L32.73,8.372a3.672,3.672,0,0,0-4.579,0L8.334,24.395a3.607,3.607,0,0,0-.51,5.091Zm23.912,19.35H26.835V42.608a1.8,1.8,0,0,1,1.8-1.8h3.607a1.8,1.8,0,0,1,1.8,1.8Zm10.82-1.8a1.8,1.8,0,0,1-1.8,1.8h-5.41V42.608a5.41,5.41,0,0,0-5.41-5.41H28.638a5.41,5.41,0,0,0-5.41,5.41v9.017h-5.41a1.8,1.8,0,0,1-1.8-1.8V32.149l14.427-11.44L44.868,32.151Zm-3.607-37.87h3.607v6.236L41.262,15.27Zm-10.8-.775L50.278,27.184l-2.31,2.8a.036.036,0,0,1-.038,0c-.013-.013-.031-.016-.043-.029L31.561,17a1.8,1.8,0,0,0-2.24,0L12.915,29.985,10.6,27.2Z" transform="translate(5.625 6.082)" fill="#fff"/>
    <path id="Path" d="M6.8,40.607H30.247a1.8,1.8,0,1,0,0-3.607H6.8a1.8,1.8,0,0,0,0,3.607Z" transform="translate(4.017 29.724)" fill="#fff" fill-rule="evenodd"/>
    <path id="Path-2" data-name="Path" d="M32.05,42.8a1.8,1.8,0,0,0-1.8-1.8H6.8a1.8,1.8,0,0,0,0,3.607H30.247A1.8,1.8,0,0,0,32.05,42.8Z" transform="translate(4.017 32.937)" fill="#fff" fill-rule="evenodd"/>
  </g>
</svg>
