<svg id="Page-1" xmlns="http://www.w3.org/2000/svg" width="100.993" height="100.987" viewBox="0 0 100.993 100.987">
  <g id="_060---Construction-Deal" data-name="060---Construction-Deal" transform="translate(0)">
    <path id="Shape" d="M96.511,30H79.785a3.944,3.944,0,0,0-3.264,1.683c-38.334-.008,5.775.081-52.045-.017A3.949,3.949,0,0,0,21.209,30H4.482A4.466,4.466,0,0,0,0,34.439V59.226a4.466,4.466,0,0,0,4.482,4.439H16.47a4.028,4.028,0,0,0,3.272-1.683h4.09l-1.278,3.4a5.361,5.361,0,0,0,7.13,6.839,5.348,5.348,0,0,0,6.94,2.614,5.353,5.353,0,0,0,2.946,2.7,5.3,5.3,0,0,0,3.994-.094,5.363,5.363,0,0,0,9.677,0l5.05,2.461a5.364,5.364,0,0,0,7.2-2.557,5.5,5.5,0,0,0,.246-3.957,5.361,5.361,0,0,0,3.163-6.7,5.218,5.218,0,0,0,3.447-4.711h8.908a4.028,4.028,0,0,0,3.272,1.683H96.511a4.466,4.466,0,0,0,4.482-4.439V34.439A4.466,4.466,0,0,0,96.511,30ZM17.128,59.775a.656.656,0,0,1-.658.523H4.482a1.1,1.1,0,0,1-1.116-1.072V34.439a1.1,1.1,0,0,1,1.116-1.072H21.209a.643.643,0,0,1,.656.737ZM29.471,68a2.033,2.033,0,0,1-2.6,1.178,2,2,0,0,1-1.178-2.6l2.092-5.555a2.03,2.03,0,0,1,3.919.727C31.708,62.21,29.537,67.832,29.471,68Zm5.773-5.74a2.023,2.023,0,1,1,3.789,1.421L36.42,70.6a2.022,2.022,0,0,1-3.787-1.416Zm10.729,4.03L43.36,73.213a2.035,2.035,0,0,1-2.611,1.178,2.008,2.008,0,0,1-1.178-2.6l2.616-6.921a2.023,2.023,0,1,1,3.789,1.419Zm5.891,5.386L50.3,75.831a2.022,2.022,0,0,1-3.787-1.419l1.57-4.158a2.032,2.032,0,0,1,2.607-1.178,2.01,2.01,0,0,1,1.18,2.594ZM72,55.854a2.02,2.02,0,0,1-2.675.949h-.015l-4-1.922a1.683,1.683,0,1,0-1.451,3.038l4,1.914a2.059,2.059,0,0,1,.959,2.7,2.006,2.006,0,0,1-2.671.958c-.939-.438-3.148-1.5-4.324-2.06a1.683,1.683,0,0,0-1.453,3.03c.081.039,4.312,2.067,4.395,2.1a2.027,2.027,0,0,1-1.852,3.605l-4.058-1.947a1.683,1.683,0,0,0-1.456,3.03L61.468,73.2l.012.01a2.04,2.04,0,0,1,.963,2.7,2,2,0,0,1-2.675.946l-5.3-2.582.544-1.437a5.386,5.386,0,0,0-3.146-6.938,5.324,5.324,0,0,0-2.415-.3,5.359,5.359,0,0,0-7.47-4.974,5.386,5.386,0,0,0-7.958-2.059,5.369,5.369,0,0,0-8.709.039H20.773L25.13,35.036l21.793.04L37.47,45.471a6.112,6.112,0,0,0,8.608,8.652l9.732-8.793,15.238,7.817a2.03,2.03,0,0,1,.949,2.7Zm2.123,2.76a5.238,5.238,0,0,0,.922-1.328,5.386,5.386,0,0,0-2.495-7.155L58.48,42.917l.858-.776a1.683,1.683,0,1,0-2.252-2.5L43.834,51.614a2.745,2.745,0,0,1-3.871-3.885L50.618,36.013a2.824,2.824,0,0,1,1.9-.926l7.1.013v-.027l16.255-.024,4.354,23.565Zm23.508.611A1.1,1.1,0,0,1,96.511,60.3H84.523a.656.656,0,0,1-.658-.522L79.121,34.105a.643.643,0,0,1,.663-.739H96.517a1.1,1.1,0,0,1,1.116,1.072Z" transform="translate(0 20.496)" fill="#fff"/>
    <path id="Shape-2" data-name="Shape" d="M9.05,34a5.05,5.05,0,1,0,5.05,5.05A5.05,5.05,0,0,0,9.05,34Zm0,6.733a1.683,1.683,0,1,1,1.683-1.683A1.683,1.683,0,0,1,9.05,40.733Z" transform="translate(2.733 23.229)" fill="#fff"/>
    <path id="Shape-3" data-name="Shape" d="M55.05,34a5.05,5.05,0,1,0,5.05,5.05A5.05,5.05,0,0,0,55.05,34Zm0,6.733a1.683,1.683,0,1,1,1.683-1.683A1.683,1.683,0,0,1,55.05,40.733Z" transform="translate(34.161 23.229)" fill="#fff"/>
    <path id="Shape-4" data-name="Shape" d="M59.863,0H36.3a3.366,3.366,0,0,0-3.366,3.366v10.1h-10.1a3.366,3.366,0,0,0-3.366,3.366v10.1H9.366A3.366,3.366,0,0,0,6,30.3V40.4a3.366,3.366,0,0,0,3.366,3.366H32.932a3.329,3.329,0,0,0,1.683-.468,3.329,3.329,0,0,0,1.683.468H59.863a3.329,3.329,0,0,0,1.683-.468,3.329,3.329,0,0,0,1.683.468H86.795A3.366,3.366,0,0,0,90.161,40.4V30.3a3.366,3.366,0,0,0-3.366-3.366H76.7v-10.1a3.366,3.366,0,0,0-3.366-3.366h-10.1V3.366A3.366,3.366,0,0,0,59.863,0ZM36.3,3.366H59.863v10.1H36.3ZM32.932,40.4H9.366V30.3H32.932Zm-10.1-13.466v-10.1H46.4v10.1ZM59.863,30.3V40.4H36.3V30.3Zm26.932,0V40.4H63.229V30.3ZM73.329,16.832v10.1H49.764v-10.1Z" transform="translate(4.099)" fill="#fff"/>
  </g>
</svg>
