<svg id="Page-1" xmlns="http://www.w3.org/2000/svg" width="101.445" height="101.444" viewBox="0 0 101.445 101.444">
  <g id="_012---Increase-Houses" data-name="012---Increase-Houses" transform="translate(0 0)">
    <path id="Shape" d="M8.942,27.735a3.392,3.392,0,0,0,2.13,1.184V44.184a5.072,5.072,0,0,0,5.072,5.072h23.67a5.072,5.072,0,0,0,5.072-5.072V28.917a3.381,3.381,0,0,0,2.13-1.184l2.168-2.617a3.371,3.371,0,0,0-.48-4.773l-3.818-3.084V8.679A3.381,3.381,0,0,0,41.505,5.3H38.124a3.381,3.381,0,0,0-3.381,3.381v.379L30.127,5.324a3.43,3.43,0,0,0-4.294,0L7.256,20.345a3.37,3.37,0,0,0-.482,4.773Zm22.419,18.14H24.6V37.421a1.691,1.691,0,0,1,1.691-1.691H29.67a1.691,1.691,0,0,1,1.691,1.691Zm10.144-1.691a1.691,1.691,0,0,1-1.691,1.691H34.742V37.421a5.072,5.072,0,0,0-5.072-5.072H26.289a5.072,5.072,0,0,0-5.072,5.072v8.454H16.144a1.691,1.691,0,0,1-1.691-1.691V27.615L27.979,16.887,41.505,27.615ZM38.124,8.679h3.381v5.847l-3.381-2.734ZM28,7.954,46.577,22.962l-2.164,2.624a.036.036,0,0,1-.037,0l-.025-.017L29.031,13.413a1.691,1.691,0,0,0-2.1,0L11.547,25.586l-2.166-2.61Z" transform="translate(4.145 3.156)" fill="#fff"/>
    <path id="Path" d="M25.979,33H5.691a1.691,1.691,0,1,0,0,3.381H25.979a1.691,1.691,0,1,0,0-3.381Z" transform="translate(2.763 22.794)" fill="#fff" fill-rule="evenodd"/>
    <path id="Path-2" data-name="Path" d="M25.979,37H5.691a1.691,1.691,0,0,0,0,3.381H25.979a1.691,1.691,0,0,0,0-3.381Z" transform="translate(2.763 25.557)" fill="#fff" fill-rule="evenodd"/>
    <path id="Path-3" data-name="Path" d="M25.979,41H5.691a1.691,1.691,0,1,0,0,3.381H25.979a1.691,1.691,0,1,0,0-3.381Z" transform="translate(2.763 28.32)" fill="#fff" fill-rule="evenodd"/>
    <path id="Path-4" data-name="Path" d="M20,34.691a1.691,1.691,0,0,0,1.691,1.691h20a1.691,1.691,0,0,0,0-3.381h-20A1.691,1.691,0,0,0,20,34.691Z" transform="translate(13.815 22.794)" fill="#fff" fill-rule="evenodd"/>
    <path id="Path-5" data-name="Path" d="M31.835,38.691A1.691,1.691,0,0,0,30.144,37H21.691a1.691,1.691,0,1,0,0,3.381h8.454A1.691,1.691,0,0,0,31.835,38.691Z" transform="translate(13.815 25.557)" fill="#fff" fill-rule="evenodd"/>
    <path id="Shape-2" data-name="Shape" d="M97.06,47.442,84.81,50.5a3.561,3.561,0,0,0-2.546,2.5,3.49,3.49,0,0,0,.908,3.425l1,1L65.093,76.516l-.845-.845V5.072A5.072,5.072,0,0,0,59.176,0H13.526a1.907,1.907,0,0,0-1.194.494L.5,12.329a1.86,1.86,0,0,0-.5,1.2V74.392a5.072,5.072,0,0,0,5.072,5.072H35.11L21.788,92.784a5.072,5.072,0,0,0,3.573,8.66H91.3a1.691,1.691,0,0,0,1.691-1.691V66.108a3.474,3.474,0,0,0,2.788.418,3.562,3.562,0,0,0,2.5-2.555l3.059-12.239a3.535,3.535,0,0,0-4.281-4.284ZM11.835,5.772v4.372a1.691,1.691,0,0,1-1.691,1.691H5.772ZM5.072,76.083a1.691,1.691,0,0,1-1.691-1.691V15.217h6.763a5.072,5.072,0,0,0,5.072-5.072V3.381H59.176a1.691,1.691,0,0,1,1.691,1.691V72.3l-5.711-5.7a5.155,5.155,0,0,0-7.167,0l-9.5,9.49ZM35.505,98.062H30.832l4.673-4.67Zm6.763,0H38.887v-8.05l3.381-3.381Zm6.763,0H45.65V83.255l3.381-3.381Zm6.763,0H52.413V78.183l3.381,3.381Zm6.763,0H59.176V84.936c2.311,2.223,2.325,2.506,3.381,3.1Zm6.763,0H65.938V88.638a5.657,5.657,0,0,0,3.381-2.014Zm6.763,0H72.7V83.245l3.381-3.381Zm6.763,0H79.464V76.487l3.381-3.381Zm6.763,0H86.227V69.729l3.381-3.381Zm8.454-47.171L95,63.123c0,.025-.014.09-.26.086l-2.2-2.2a1.691,1.691,0,0,0-2.391,0L66.277,84.888a1.691,1.691,0,0,1-2.367,0L52.769,73.763a1.691,1.691,0,0,0-2.391,0L26.544,97.555a1.691,1.691,0,0,1-2.387,0,1.647,1.647,0,0,1,.008-2.367L50.372,68.982a1.654,1.654,0,0,1,2.367,0l11.14,11.125a1.691,1.691,0,0,0,2.391,0L87.742,58.635a1.691,1.691,0,0,0,0-2.391L85.507,53.9a.154.154,0,0,1,.115-.117L98,50.771a.125.125,0,0,1,.063.12Z" transform="translate(0 0)" fill="#fff"/>
  </g>
</svg>
