<svg xmlns="http://www.w3.org/2000/svg" width="99.482" height="99.482" viewBox="0 0 99.482 99.482">
  <g id="Money-Box" transform="translate(-2 -2)">
    <path id="Path_662" data-name="Path 662" d="M91.3,34.8a1.658,1.658,0,0,0-1.421-.8H13.606a1.633,1.633,0,0,0-1.4.819l-.023-.015L2.237,51.384A1.658,1.658,0,0,0,3.658,53.9h8.29V78.767a1.658,1.658,0,0,0,1.658,1.658h76.27a1.658,1.658,0,0,0,1.658-1.658V53.9h8.29a1.658,1.658,0,0,0,1.421-2.512ZM6.586,50.58l5.362-8.937V50.58ZM41.793,77.109H15.264V37.316H41.793Zm46.425,0H45.109V41.644l6.869,11.449a1.658,1.658,0,0,0,1.421.8H88.218ZM54.337,50.58,46.379,37.316H88.937L96.9,50.58Z" transform="translate(0 21.057)" fill="#fff"/>
    <path id="Path_663" data-name="Path 663" d="M43.658,62.606H56.922a1.658,1.658,0,0,0,1.658-1.658v-8.29A1.658,1.658,0,0,0,56.922,51H43.658A1.658,1.658,0,0,0,42,52.658v8.29A1.658,1.658,0,0,0,43.658,62.606Zm1.658-8.29h9.948V59.29H45.316Z" transform="translate(26.321 32.244)" fill="#fff"/>
    <path id="Path_664" data-name="Path 664" d="M61.948,23.316V20A9.958,9.958,0,0,0,52,29.948h3.316A6.632,6.632,0,0,1,61.948,23.316Z" transform="translate(32.902 11.845)" fill="#fff"/>
    <path id="Path_665" data-name="Path 665" d="M56,33.948h3.316a6.632,6.632,0,0,1,6.632-6.632V24A9.958,9.958,0,0,0,56,33.948Z" transform="translate(35.534 14.477)" fill="#fff"/>
    <path id="Path_666" data-name="Path 666" d="M12.632,29.948h3.316A9.958,9.958,0,0,0,6,20v3.316A6.632,6.632,0,0,1,12.632,29.948Z" transform="translate(2.632 11.845)" fill="#fff"/>
    <path id="Path_667" data-name="Path 667" d="M8.632,33.948h3.316A9.958,9.958,0,0,0,2,24v3.316A6.632,6.632,0,0,1,8.632,33.948Z" transform="translate(0 14.477)" fill="#fff"/>
    <path id="Path_668" data-name="Path 668" d="M10,28h3.316v3.316H10Z" transform="translate(5.264 17.109)" fill="#fff"/>
    <path id="Path_669" data-name="Path 669" d="M52,28h3.316v3.316H52Z" transform="translate(32.902 17.109)" fill="#fff"/>
    <path id="Path_670" data-name="Path 670" d="M18.316,45.109H68.057a3.316,3.316,0,0,0,3.316-3.316V5.316A3.316,3.316,0,0,0,68.057,2H18.316A3.316,3.316,0,0,0,15,5.316V41.793A3.316,3.316,0,0,0,18.316,45.109Zm0-39.793H68.057V8.632H18.316Zm49.741,6.632v3.316H18.316V11.948Zm0,6.632V41.793H18.316V18.58Z" transform="translate(8.554)" fill="#fff"/>
    <path id="Path_671" data-name="Path 671" d="M35.29,30.58A8.29,8.29,0,1,0,27,22.29,8.29,8.29,0,0,0,35.29,30.58Zm0-13.264a4.974,4.974,0,1,1-4.974,4.974A4.974,4.974,0,0,1,35.29,17.316Z" transform="translate(16.451 7.896)" fill="#fff"/>
    <path id="Path_672" data-name="Path 672" d="M22.316,17.316h3.316V14H20.658A1.658,1.658,0,0,0,19,15.658v4.974h3.316Z" transform="translate(11.187 7.896)" fill="#fff"/>
    <path id="Path_673" data-name="Path 673" d="M45.316,20.632h3.316V15.658A1.658,1.658,0,0,0,46.974,14H42v3.316h3.316Z" transform="translate(26.321 7.896)" fill="#fff"/>
    <path id="Path_674" data-name="Path 674" d="M20.658,26.632h4.974V23.316H22.316V20H19v4.974A1.658,1.658,0,0,0,20.658,26.632Z" transform="translate(11.187 11.845)" fill="#fff"/>
    <path id="Path_675" data-name="Path 675" d="M48.632,24.974V20H45.316v3.316H42v3.316h4.974A1.658,1.658,0,0,0,48.632,24.974Z" transform="translate(26.321 11.845)" fill="#fff"/>
  </g>
</svg>
