<svg xmlns="http://www.w3.org/2000/svg" width="100.404" height="100.404" viewBox="0 0 100.404 100.404">
  <g id="peer-to-peer" transform="translate(-1 -1)">
    <path id="Path_698" data-name="Path 698" d="M77.675,53.288a1.62,1.62,0,0,0-1.428-.855,4.864,4.864,0,0,1-4.858-4.858V45.955a12.955,12.955,0,1,0-25.911,0v1.619a4.864,4.864,0,0,1-4.858,4.858,1.618,1.618,0,0,0-1.347,2.517,12.5,12.5,0,0,0,8.7,5.453,11.339,11.339,0,0,0-5.736,9.844v9.716a1.62,1.62,0,0,0,1.619,1.619H73.008a1.62,1.62,0,0,0,1.619-1.619V70.246A11.339,11.339,0,0,0,68.891,60.4a12.5,12.5,0,0,0,8.7-5.453A1.616,1.616,0,0,0,77.675,53.288ZM58.433,62.149h4.858L61.5,64.543l-1.919-1.919a1.619,1.619,0,0,0-2.29,0l-1.919,1.919-1.794-2.393Zm6.478-9.716a6.478,6.478,0,1,1-12.955,0V49.194a8.092,8.092,0,0,0,6.478-3.244,8.092,8.092,0,0,0,6.478,3.244Zm6.478,17.814v8.1H68.15V68.627H64.911v9.716H51.955V68.627H48.717v9.716H45.478v-8.1a8.086,8.086,0,0,1,4.649-7.3l3.772,5.03a1.619,1.619,0,0,0,2.44.172l2.094-2.092,2.094,2.094a1.614,1.614,0,0,0,1.145.474c.037,0,.076,0,.115,0a1.626,1.626,0,0,0,1.181-.643l3.772-5.03a8.082,8.082,0,0,1,4.649,7.3ZM67.17,57.291h-.334a9.663,9.663,0,0,0,1.313-4.858V47.575a1.62,1.62,0,0,0-1.619-1.619H64.911A4.864,4.864,0,0,1,60.053,41.1a1.619,1.619,0,1,0-3.239,0,4.864,4.864,0,0,1-4.858,4.858H50.336a1.62,1.62,0,0,0-1.619,1.619v4.858a9.648,9.648,0,0,0,1.315,4.858H49.7a9.274,9.274,0,0,1-6.026-2.217,8.11,8.11,0,0,0,5.044-7.5V45.955a9.716,9.716,0,0,1,19.433,0v1.619a8.11,8.11,0,0,0,5.044,7.5A9.269,9.269,0,0,1,67.17,57.291Z" transform="translate(23.537 19.821)" fill="#fff"/>
    <path id="Path_699" data-name="Path 699" d="M34.478,29.478a3.242,3.242,0,0,1,3.239,3.239h3.239A6.472,6.472,0,0,0,36.1,26.469V23H32.858v3.469a6.464,6.464,0,0,0,1.619,12.725,3.239,3.239,0,1,1-3.239,3.239H28a6.472,6.472,0,0,0,4.858,6.248v3.469H36.1V48.681a6.464,6.464,0,0,0-1.619-12.725,3.239,3.239,0,0,1,0-6.478Z" transform="translate(16.724 13.627)" fill="#fff"/>
    <path id="Path_700" data-name="Path 700" d="M33.388,47.963V38.246a11.352,11.352,0,0,0-9.166-11.122,9.72,9.72,0,0,0,2.121-3.453H28.53a4.846,4.846,0,0,0,1.619-9.419v-.3a12.955,12.955,0,0,0-25.911,0v.3a4.846,4.846,0,0,0,1.619,9.419H8.044a9.72,9.72,0,0,0,2.121,3.453A11.352,11.352,0,0,0,1,38.246v9.716a1.62,1.62,0,0,0,1.619,1.619H31.769A1.62,1.62,0,0,0,33.388,47.963ZM10.716,20.433V17.194h4.858a8.092,8.092,0,0,0,6.478-3.244,8.175,8.175,0,0,0,1.619,1.6v4.878a6.478,6.478,0,0,1-12.955,0Zm9.716,9.716a3.239,3.239,0,1,1-6.478,0Zm8.1-9.716H26.911V17.194H28.53a1.619,1.619,0,0,1,0,3.239ZM17.194,4.239a9.73,9.73,0,0,1,9.713,9.438A4.866,4.866,0,0,1,23.672,9.1a1.619,1.619,0,1,0-3.239,0,4.864,4.864,0,0,1-4.858,4.858h-8.1a9.726,9.726,0,0,1,9.716-9.716ZM5.858,20.433a1.619,1.619,0,1,1,0-3.239H7.478v3.239ZM30.149,46.344H26.911V36.627H23.672v9.716H10.716V36.627H7.478v9.716H4.239v-8.1a8.11,8.11,0,0,1,6.494-7.935,6.463,6.463,0,0,0,12.923,0,8.11,8.11,0,0,1,6.494,7.935Z" fill="#fff"/>
    <path id="Path_701" data-name="Path 701" d="M33.952,18.538l2.29-2.29-3.713-3.713h5.807A34.045,34.045,0,0,1,72.344,46.543h3.239A37.289,37.289,0,0,0,38.336,9.3H32.529l3.713-3.713-2.29-2.29L27.475,9.771a1.618,1.618,0,0,0,0,2.29Z" transform="translate(16.105 1.42)" fill="#fff"/>
    <path id="Path_702" data-name="Path 702" d="M48.63,62l-2.29,2.29,3.713,3.713H44.246A34.045,34.045,0,0,1,10.239,34H7A37.289,37.289,0,0,0,44.246,71.246h5.807L46.34,74.96l2.29,2.29,6.478-6.478a1.618,1.618,0,0,0,0-2.29Z" transform="translate(3.716 20.441)" fill="#fff"/>
  </g>
</svg>
