<svg xmlns="http://www.w3.org/2000/svg" width="86.075" height="100.136" viewBox="0 0 86.075 100.136">
  <g id="saving-money_1_" data-name="saving-money (1)" transform="translate(-35.915)">
    <path id="Path_703" data-name="Path 703" d="M137.318,52.133c1.2,0,1.6-1.22,1.468-2.186,4.613-1.394,5.148-7.863.509-9.443-1.043-.368-3.969-.989-3.663-2.613a1.506,1.506,0,0,1,.992-1.189,2.725,2.725,0,0,1,2.5.393l-.019-.017s1.374,1.174,2.355.2c1.08-1.077-.366-2.355-.366-2.355a5.23,5.23,0,0,0-2.309-1.143c.21-2.719-3.248-2.591-2.936.1-2.986.858-4.44,5.282-1.79,7.357a14.828,14.828,0,0,0,4.258,2.044,1.728,1.728,0,0,1,1.256,2.025,2.281,2.281,0,0,1-2.266,1.922,3.816,3.816,0,0,1-2.769-.724,1.468,1.468,0,0,0-1.606,2.458,6.3,6.3,0,0,0,2.917,1.139c-.106.938.327,2.039,1.468,2.039Z" transform="translate(-77.492 -25.571)" fill="#fff"/>
    <path id="Path_704" data-name="Path 704" d="M39.294,57.228c-1.777,0-3.676,1.727-3.339,3.616l1.006,5.663a3.365,3.365,0,0,0,3.359,3.212h2.169l1.2,9.1a1.469,1.469,0,0,0,2.911-.383L45.45,69.719H74.375L71.689,90.153a2.628,2.628,0,0,1-2.571,2H50.706a2.628,2.628,0,0,1-2.571-2l-.54-4.111a1.469,1.469,0,0,0-2.911.383l.55,4.183a5.581,5.581,0,0,0,5.472,4.481H69.118a5.581,5.581,0,0,0,5.472-4.481l2.141-16.291a3.338,3.338,0,0,0,1.669.448h2.169l2.746,20.89a5.581,5.581,0,0,0,5.472,4.481H107.2a5.581,5.581,0,0,0,5.472-4.481l2.746-20.89h2.169a3.365,3.365,0,0,0,3.359-3.212l1.006-5.663c.337-1.889-1.565-3.616-3.339-3.616H99.462V58.63c5.224.653,11.344.172,15.48-3.44,6.268-5.474,5.428-16.24,5.389-16.7a1.468,1.468,0,0,0-1.15-1.31c-.448-.1-11.053-2.328-17.317,3.142a12.957,12.957,0,0,0-2.4,2.823v-5.3c11.526-.893,18.708-13.808,13.157-24.079a1.468,1.468,0,1,0-2.6,1.371c4.8,8.823-1.971,19.967-12.029,19.841A13.581,13.581,0,0,1,84.407,21.442c-.09-10.58,12.023-17.184,20.89-11.419a1.468,1.468,0,1,0,1.578-2.476C96.086.532,81.36,8.571,81.471,21.442A16.517,16.517,0,0,0,96.526,37.853v5.51a13.056,13.056,0,0,0-2.535-3.036c-3.4-2.972-8.087-3.67-11.728-3.673a25.762,25.762,0,0,0-.013-3.205,1.468,1.468,0,0,0-1.15-1.31c-.448-.1-11.053-2.328-17.317,3.142a12.961,12.961,0,0,0-2.4,2.823v-5.3A16.517,16.517,0,0,0,76.435,16.4c-.907-21.864-32.142-21.858-33.046,0A16.517,16.517,0,0,0,58.444,32.807v5.51a13.057,13.057,0,0,0-2.535-3.037c-6.264-5.47-16.869-3.24-17.317-3.142a1.468,1.468,0,0,0-1.15,1.31c-.64,10.93,3.976,22.409,21,20.119v3.661H39.294Zm.6,9.132a1.469,1.469,0,0,0-.023-.257l-.994-5.6a.426.426,0,0,1,.418-.34H80.53a.426.426,0,0,1,.418.34l-.314,1.77H77.375C75.6,62.274,73.7,64,74.036,65.89l.159.893H40.319a.425.425,0,0,1-.426-.423ZM109.77,95.2a2.628,2.628,0,0,1-2.571,2H88.788a2.628,2.628,0,0,1-2.571-2L83.531,74.765h28.925ZM119.03,65.55s-1.017,5.77-1.017,5.856a.425.425,0,0,1-.426.423H78.4a.425.425,0,0,1-.426-.423c0-.086-1.017-5.856-1.017-5.856a.426.426,0,0,1,.418-.34h41.237A.425.425,0,0,1,119.03,65.55ZM99.667,51.282c1.506-10.867,9.539-12.474,17.781-11.414a27.169,27.169,0,0,1-.309,4.366c-.419,2.71-1.476,6.428-4.128,8.744-3.3,2.879-8.388,3.1-11.647,2.877l8.005-6.991a1.468,1.468,0,0,0-1.931-2.212l-7.976,6.965a12.531,12.531,0,0,1,.2-2.335Zm-7.607-8.744c3.292,2.875,4.173,7.862,4.379,11.105l-8.022-6.992a1.468,1.468,0,1,0-1.929,2.213l8.018,6.989c-11.965.919-16.111-5.811-16.1-15.986,2.676-.376,9.552-.909,13.651,2.67Zm-30.474,3.7c.419-2.711,1.476-6.428,4.128-8.744,4.1-3.581,10.979-3.046,13.652-2.67.006.521,0,1.2-.052,1.975a24.6,24.6,0,0,0-2.639.387,1.468,1.468,0,0,0-1.15,1.31,28.509,28.509,0,0,0,.656,8.1c-3,3.844-8.343,4.517-12.9,4.209l8.005-6.991a1.468,1.468,0,0,0-1.931-2.212l-7.975,6.965A12.511,12.511,0,0,1,61.585,46.236ZM46.325,16.4A13.581,13.581,0,0,1,59.912,2.851c18.025.744,18.02,26.347,0,27.089A13.581,13.581,0,0,1,46.325,16.4ZM44.762,47.932c-4.095-3.576-4.46-10.425-4.435-13.113a27.458,27.458,0,0,1,4.4-.265c9.335.1,13.087,5.478,13.632,14.043l-8.022-6.992a1.468,1.468,0,1,0-1.929,2.213l8.018,6.989c-3.259.222-8.36.007-11.661-2.876ZM61.38,53.583c5.373.672,11.7.14,15.823-3.756,3.015,7.983,11.628,9.881,19.323,8.786v3.661H83.616l.254-1.431c.337-1.889-1.565-3.616-3.339-3.616H61.38V53.583Z" transform="translate(0 0)" fill="#fff"/>
    <path id="Path_705" data-name="Path 705" d="M331.866,77.913c1.2,0,1.6-1.22,1.468-2.186,4.613-1.394,5.148-7.863.509-9.443-1.043-.368-3.969-.989-3.663-2.613a1.506,1.506,0,0,1,.992-1.189,2.725,2.725,0,0,1,2.5.393l-.019-.017s1.374,1.174,2.355.2c1.08-1.077-.366-2.355-.366-2.355a5.23,5.23,0,0,0-2.309-1.143c.21-2.718-3.248-2.591-2.936.1-2.986.858-4.44,5.282-1.79,7.357a14.827,14.827,0,0,0,4.258,2.044,1.728,1.728,0,0,1,1.256,2.025A2.281,2.281,0,0,1,331.856,73a3.816,3.816,0,0,1-2.769-.724,1.468,1.468,0,0,0-1.606,2.458,6.3,6.3,0,0,0,2.917,1.139c-.106.938.327,2.039,1.468,2.039Z" transform="translate(-233.958 -46.305)" fill="#fff"/>
  </g>
</svg>
