<svg xmlns="http://www.w3.org/2000/svg" width="100.23" height="100.234" viewBox="0 0 100.23 100.234">
  <g id="saving-money" transform="translate(-5.25 -5.25)">
    <path id="Path_691" data-name="Path 691" d="M68.572,72.063A25.024,25.024,0,1,0,43.549,47.04,25.024,25.024,0,0,0,68.572,72.063Zm0-47.061A22.038,22.038,0,1,1,46.535,47.04,22.038,22.038,0,0,1,68.572,25Z" transform="translate(-5.628 -2.464)" fill="#fff"/>
    <path id="Path_692" data-name="Path 692" d="M69.838,65.979A17.673,17.673,0,1,0,52.166,48.306,17.673,17.673,0,0,0,69.838,65.979Zm0-32.36A14.687,14.687,0,1,1,55.152,48.306,14.687,14.687,0,0,1,69.838,33.619Z" transform="translate(-6.894 -3.73)" fill="#fff"/>
    <path id="Path_693" data-name="Path 693" d="M66.681,53.366,64.906,55.56A10.1,10.1,0,0,0,70.65,58.2V59.85h2.244V58.272c3.574-.247,5.621-2.318,5.621-5.152,0-3.008-2.244-4.167-5.621-4.932V43.554a8.049,8.049,0,0,1,3.5,1.849l1.677-2.268a9.17,9.17,0,0,0-5.177-2.293V39.314H70.65v1.5c-3.033.37-5.079,2.417-5.079,5.079,0,2.909,2.047,3.993,5.079,4.782v4.808a8.44,8.44,0,0,1-3.969-2.12Zm6.213-2.122c1.75.518,2.54,1.036,2.54,2.169,0,1.085-.863,2.022-2.54,2.218Zm-4.216-5.621A2.327,2.327,0,0,1,70.65,43.5V47.6c-1.332-.47-1.972-.988-1.972-1.974Z" transform="translate(-8.766 -5.005)" fill="#fff"/>
    <path id="Path_694" data-name="Path 694" d="M104.09,84.972a7.387,7.387,0,0,0-10.3-1.669L75.824,96.257c0-.032,0-.062,0-.095a7.387,7.387,0,0,0-7.379-7.379H44.683l-1.915-2.133a14.307,14.307,0,0,0-10.633-4.745H6.743a1.493,1.493,0,1,0,0,2.986H20.4v28.871H6.743a1.493,1.493,0,0,0,0,2.986H69.407a9.963,9.963,0,0,0,5.864-1.895l27.151-19.585a7.387,7.387,0,0,0,1.668-10.3Zm-1.648,5.019a4.368,4.368,0,0,1-1.767,2.861L73.524,112.433a7,7,0,0,1-4.117,1.33H23.39V84.891h8.745a11.319,11.319,0,0,1,8.412,3.753l2.36,2.629a1.492,1.492,0,0,0,1.109.5H68.45a4.394,4.394,0,1,1,0,8.787H46.362a1.493,1.493,0,0,0,0,2.986H68.45a7.324,7.324,0,0,0,4.382-1.457c.026-.016,22.7-16.363,22.7-16.363a4.393,4.393,0,0,1,6.91,4.265Z" transform="translate(0 -11.264)" fill="#fff"/>
    <path id="Path_695" data-name="Path 695" d="M72.625,14.623a1.492,1.492,0,0,0,1.493-1.493V6.743a1.493,1.493,0,1,0-2.986,0v6.388a1.493,1.493,0,0,0,1.493,1.493Z" transform="translate(-9.681)" fill="#fff"/>
    <path id="Path_696" data-name="Path 696" d="M85.05,17.543a1.493,1.493,0,0,0,1.493-1.493V9.663a1.493,1.493,0,1,0-2.986,0v6.388a1.492,1.492,0,0,0,1.493,1.493Z" transform="translate(-11.507 -0.429)" fill="#fff"/>
    <path id="Path_697" data-name="Path 697" d="M60.2,17.543a1.492,1.492,0,0,0,1.493-1.493V9.663a1.493,1.493,0,1,0-2.986,0v6.388A1.493,1.493,0,0,0,60.2,17.543Z" transform="translate(-7.855 -0.429)" fill="#fff"/>
  </g>
</svg>
