<svg id="startup" xmlns="http://www.w3.org/2000/svg" width="28.078" height="25.356" viewBox="0 0 28.078 25.356">
  <path id="Path_21" data-name="Path 21" d="M27.256,26.619H19.44a9,9,0,0,0-10.8,0H.823A.823.823,0,0,0,0,27.442V47.621a2.555,2.555,0,0,0,2.552,2.552c6.751,0,16.232,0,22.974,0a2.555,2.555,0,0,0,2.552-2.552V27.442a.823.823,0,0,0-.823-.823Zm-.823,18.944H1.645v-17.3H6.972a8.953,8.953,0,1,0,14.135,0h5.326v17.3ZM16.995,48.2a.329.329,0,0,1-.287.326H11.371a.329.329,0,0,1-.287-.326v-.993h5.911ZM9.535,28a7.274,7.274,0,0,1,3.681-1.51v.4a.823.823,0,0,0,1.645,0v-.4A7.324,7.324,0,0,1,21.3,32.935h-.4a.823.823,0,0,0,0,1.645h.4a7.324,7.324,0,0,1-6.441,6.441v-.4a.823.823,0,0,0-1.645,0v.4A7.324,7.324,0,0,1,6.776,34.58h.4a.823.823,0,0,0,0-1.645h-.4a7.305,7.305,0,0,1,2.586-4.79A.825.825,0,0,0,9.535,28ZM1.645,47.621v-.412H9.439V48.2a1.982,1.982,0,0,0,.027.326H2.552a.908.908,0,0,1-.907-.907Zm23.881.907H18.613a1.977,1.977,0,0,0,.027-.326v-.993h7.793v.412A.908.908,0,0,1,25.526,48.528Z" transform="translate(0 -24.818)" fill="#0061a7"/>
  <text id="_" data-name="%" transform="translate(9.039 12.178)" fill="#0061a7" font-size="11" font-family="Helvetica-Bold, Helvetica" font-weight="700"><tspan x="0" y="0">%</tspan></text>
</svg>
