<svg xmlns="http://www.w3.org/2000/svg" width="100.306" height="100.307" viewBox="0 0 100.306 100.307">
  <path id="team" d="M100.306,42.064H96.671l-5.418,2.851a8.043,8.043,0,0,0-1.928-.793l-6.816-1.706v-.775a11.361,11.361,0,0,0,4.855-9.284V29.529A11.624,11.624,0,0,0,76.386,17.8c-.307-.008-.61,0-.914.018l1.767-4.137L68.672,5.117,63.622,8.4a27.366,27.366,0,0,0-6.056-2.512L56.319,0H43.989L42.742,5.894a27.334,27.334,0,0,0-6.056,2.512l-5.05-3.287-8.56,8.56,1.737,4.14c-.066,0-.13-.015-.2-.017A11.33,11.33,0,0,0,12.943,29.121v3.236A11.357,11.357,0,0,0,17.8,41.64v.777L13.35,43.528l-8.058-4.7H0V72.352l15.916,5.3h3.1L19.4,76.3l4.879,2.928a5.037,5.037,0,0,0,4.857,4.88,5.037,5.037,0,0,0,4.854,4.854,5.037,5.037,0,0,0,4.854,4.854,5.032,5.032,0,0,0,7.867,3.995l1.433,1.266a4.926,4.926,0,0,0,3.255,1.229h.3a4.926,4.926,0,0,0,4.917-4.86,4.921,4.921,0,0,0,4.854-4.854,4.921,4.921,0,0,0,4.854-4.858,4.975,4.975,0,0,0,4.86-4.964,4.735,4.735,0,0,0-.024-.485l29.146-14.572ZM84.128,29.529v2.828a8.121,8.121,0,0,1-4.049,7l-.809.468.006,5.12,8.083,2.019L69.567,56.328V51.97a8.05,8.05,0,0,0-2.317-5.638L72.8,44.945V39.821L72,39.354a8.112,8.112,0,0,1-4.046-7V29.121a8.089,8.089,0,0,1,8.34-8.084,8.365,8.365,0,0,1,7.839,8.492ZM52.592,55.056l-7.324-2.341A19.979,19.979,0,0,0,34.9,52.243l-.927.205V51.97a4.85,4.85,0,0,1,3.676-4.71l9.267-2.315V39.821l-.807-.467a8.112,8.112,0,0,1-4.046-7V29.121a8.089,8.089,0,0,1,8.34-8.084,8.365,8.365,0,0,1,7.839,8.492v2.828a8.121,8.121,0,0,1-4.049,7l-.809.468.006,5.12,9.265,2.315a4.85,4.85,0,0,1,3.676,4.71v6.062l-.4.21H64.94L54.994,55.4a10.2,10.2,0,0,0-2.4-.344ZM34.337,24.214a17.784,17.784,0,0,1,31.565-.13,11.252,11.252,0,0,0-1.189,5.038v3.236a11.357,11.357,0,0,0,4.854,9.283v.777L63.1,44.036l-6.473-1.62v-.775a11.361,11.361,0,0,0,4.855-9.284V29.529A11.624,11.624,0,0,0,50.5,17.8a11.327,11.327,0,0,0-11.672,11.32v3.236a11.357,11.357,0,0,0,4.854,9.283v.777l-6.471,1.62-6.473-1.62v-.775a11.361,11.361,0,0,0,4.855-9.284V29.529a11.924,11.924,0,0,0-1.255-5.315ZM26.9,14.429l5.169-5.169,4.549,2.961.871-.534A24.142,24.142,0,0,1,44.49,8.782l1-.239,1.126-5.308H53.7l1.123,5.306,1,.238a24.165,24.165,0,0,1,7.005,2.906l.871.534,4.549-2.961L73.4,14.423l-1.835,4.3a11.308,11.308,0,0,0-3.415,2.27c-.066.065-.123.134-.188.2a21.01,21.01,0,0,0-35.683.1,11.412,11.412,0,0,0-3.569-2.53ZM21.032,44.945V39.821l-.807-.467a8.112,8.112,0,0,1-4.046-7V29.121a8.089,8.089,0,0,1,8.34-8.084,8.365,8.365,0,0,1,7.839,8.492v2.828a8.121,8.121,0,0,1-4.049,7l-.809.468.006,5.12,5.551,1.387a8.05,8.05,0,0,0-2.317,5.638v1.2L25.692,54.29l.131-.458.062-2.99-8.532-4.978Zm-17.8-2.881H4.415L16.05,48.85,10.179,72.334,3.235,70.018ZM16.44,74.421,13.256,73.36l5.7-22.812L22.65,52.7v.462L16.576,74.421ZM27.5,79.078a1.826,1.826,0,0,1,.531-1.283l2.844-2.844a1.814,1.814,0,0,1,2.566,2.566L30.6,80.361a1.814,1.814,0,0,1-3.1-1.283Zm4.854,4.854a1.826,1.826,0,0,1,.531-1.283l2.844-2.844A1.814,1.814,0,0,1,38.3,82.371l-2.844,2.844a1.814,1.814,0,0,1-3.1-1.283Zm4.854,4.854a1.826,1.826,0,0,1,.531-1.283l2.844-2.844a1.814,1.814,0,0,1,2.566,2.566l-2.844,2.844a1.814,1.814,0,0,1-3.1-1.283Zm6.667,6.667a1.814,1.814,0,0,1-1.283-3.1l2.844-2.844A1.814,1.814,0,0,1,48,92.078L45.16,94.922A1.826,1.826,0,0,1,43.877,95.453ZM51.7,97.071h-.3a1.676,1.676,0,0,1-1.115-.423l-1.21-1.067,1.215-1.215a5.03,5.03,0,0,0,1.019-1.5l1.471,1.224A1.688,1.688,0,0,1,51.7,97.071ZM66.21,82.51h-.28a1.736,1.736,0,0,1-1.113-.4l-8.773-7.311-2.073,2.487,8.52,7.1a1.689,1.689,0,0,1-1.082,2.984h-.353a1.687,1.687,0,0,1-1.079-.392L51.189,79.65l-2.073,2.487,8.52,7.1a1.686,1.686,0,0,1-1.081,2.981,2.672,2.672,0,0,1-1.7-.616l-3.611-3.01A5.033,5.033,0,0,0,46.9,85.764a5.037,5.037,0,0,0-4.854-4.854,5.037,5.037,0,0,0-4.854-4.854,5.038,5.038,0,0,0-8.6-3.393l-2.844,2.844a4.985,4.985,0,0,0-.453.554l-4.97-2.982L24.68,57.832,35.6,55.4a16.667,16.667,0,0,1,8.68.393l2.383.762-8.08,4.04a5.393,5.393,0,0,0-2.993,4.847v.32A5.418,5.418,0,0,0,43.8,70.412L49.824,66.8a3.34,3.34,0,0,1,3.88.374l13.67,12.3A1.741,1.741,0,0,1,66.21,82.51Zm30.861-18.8L69.814,77.343c-.088-.094-.181-.183-.278-.27l-13.667-12.3a6.511,6.511,0,0,0-7.711-.746l-6.027,3.614a2.182,2.182,0,0,1-3.3-1.874v-.32a2.171,2.171,0,0,1,1.207-1.953L49.06,58.98a7.032,7.032,0,0,1,5.042-.468l10.167,2.9,2.462.062L97.07,45.51Zm0,0" transform="translate(0 0)" fill="#fff"/>
</svg>
