<svg id="time-management" xmlns="http://www.w3.org/2000/svg" width="25.353" height="25.356" viewBox="0 0 25.353 25.356">
  <path id="Path_22" data-name="Path 22" d="M24.646,2.987h-1.13V.743A.743.743,0,0,0,22.773,0H18.519a.743.743,0,0,0-.743.743V2.987H7.945V.743A.743.743,0,0,0,7.2,0H2.948a.743.743,0,0,0-.743.743V2.987H.779a.743.743,0,0,0-.743.743V24.613a.743.743,0,0,0,.743.743H24.646a.743.743,0,0,0,.743-.743V3.73A.743.743,0,0,0,24.646,2.987Zm-5.384-1.5H22.03v1.5H19.262Zm-15.571,0H6.459v1.5H3.691ZM23.9,4.473v1.5H1.522v-1.5ZM1.522,7.457H23.9V19.512H20.288a.743.743,0,0,0-.743.743V23.87H1.522ZM22.852,21,21.03,22.82V21Zm-.771,2.873L23.9,22.048V23.87Z" transform="translate(-0.036)" fill="#0061a7"/>
  <path id="Path_23" data-name="Path 23" d="M149.892,185.118v-.8h.478a.743.743,0,0,0,0-1.486h-2.441a.743.743,0,0,0,0,1.486h.478v.8a5.569,5.569,0,1,0,1.486,0Zm-.743,9.6a4.084,4.084,0,1,1,4.084-4.084A4.088,4.088,0,0,1,149.149,194.721Z" transform="translate(-136.471 -173.778)" fill="#0061a7"/>
  <path id="Path_24" data-name="Path 24" d="M242.882,291.682h-.531v-1.319a.743.743,0,0,0-1.486,0v2.062a.743.743,0,0,0,.743.743h1.274A.743.743,0,0,0,242.882,291.682Z" transform="translate(-228.939 -275.281)" fill="#0061a7"/>
</svg>
