<svg width="73" height="17" viewBox="0 0 73 17" fill="none" xmlns="http://www.w3.org/2000/svg">
<g clip-path="url(#clip0_1707_1814)">
<path d="M26.8776 11.3703C26.8776 12.8985 25.8739 13.8532 24.6392 13.8532C24.042 13.8532 23.5962 13.6775 23.2925 13.2964V13.7759H21.7693V7.21777H23.3728V9.39942C23.684 9.06392 24.1131 8.90495 24.6434 8.90495C25.8764 8.90495 26.8776 9.85086 26.8776 11.3703ZM25.2616 11.3703C25.2616 10.6457 24.8433 10.2391 24.303 10.2391C23.7626 10.2391 23.3435 10.6457 23.3435 11.3703C23.3435 12.0949 23.7618 12.5191 24.303 12.5191C24.8442 12.5191 25.2616 12.1072 25.2616 11.3703Z" fill="#082E47"/>
<path d="M30.7656 13.5791C30.4879 13.7644 30.0755 13.8531 29.6547 13.8531C28.4837 13.8531 27.8028 13.2524 27.8028 12.0236V10.4155H27.137V9.16132H27.8061V7.91504H29.4055V9.16132H30.4486V10.4155H29.4055V12.0061C29.4055 12.3574 29.5987 12.5541 29.8848 12.5541C30.0582 12.5562 30.2283 12.5039 30.3733 12.4039L30.7656 13.5791Z" fill="#082E47"/>
<path d="M36.2352 11.0349V13.776H34.6358V11.3089C34.6358 10.6194 34.3497 10.3278 33.883 10.3278C33.3694 10.3278 32.9737 10.6633 32.9737 11.4591V13.776H31.3752V8.98495H32.8985V9.50577C33.2598 9.10879 33.7734 8.90503 34.3456 8.90503C35.4179 8.90503 36.2352 9.55057 36.2352 11.0349Z" fill="#082E47"/>
<path d="M42.3441 11.3791C42.3441 12.8985 41.3403 13.8532 40.1057 13.8532C39.5762 13.8532 39.1471 13.6854 38.8351 13.349V15.4877H37.2366V8.98838H38.764V9.46529C39.0668 9.08499 39.5168 8.90846 40.1099 8.90846C41.3428 8.90494 42.3441 9.85964 42.3441 11.3791ZM40.7289 11.3791C40.7289 10.6545 40.3106 10.2373 39.7694 10.2373C39.2282 10.2373 38.81 10.6527 38.81 11.3791C38.81 12.1054 39.2282 12.5208 39.7694 12.5208C40.3106 12.5208 40.7289 12.1072 40.7289 11.3791Z" fill="#082E47"/>
<path d="M46.1392 8.90503V10.4157C46.0194 10.399 45.8987 10.3902 45.7778 10.3893C45.1295 10.3893 44.6837 10.7345 44.6837 11.5732V13.776H43.0852V8.98495H44.6084V9.56023C44.9363 9.12636 45.4666 8.90503 46.1392 8.90503Z" fill="#082E47"/>
<path d="M46.4678 11.3704C46.4678 9.92998 47.5552 8.90503 49.0424 8.90503C50.5481 8.90503 51.618 9.92998 51.618 11.3704C51.618 12.8107 50.5489 13.8533 49.0424 13.8533C47.5535 13.8533 46.4678 12.8195 46.4678 11.3704ZM50.0019 11.3704C50.0019 10.6458 49.5895 10.2391 49.0424 10.2391C48.4954 10.2391 48.083 10.6458 48.083 11.3704C48.083 12.0949 48.5012 12.5192 49.0424 12.5192C49.5836 12.5192 50.0019 12.1072 50.0019 11.3704Z" fill="#082E47"/>
<path d="M57.4659 11.3791C57.4659 12.8985 56.4621 13.8532 55.2275 13.8532C54.698 13.8532 54.2681 13.6854 53.9569 13.349V15.4877H52.3584V8.98838H53.8816V9.46529C54.1844 9.08499 54.6344 8.90846 55.2275 8.90846C56.4646 8.90494 57.4659 9.85964 57.4659 11.3791ZM55.8507 11.3791C55.8507 10.6545 55.4324 10.2373 54.8912 10.2373C54.35 10.2373 53.9318 10.6527 53.9318 11.3791C53.9318 12.1054 54.35 12.5208 54.8912 12.5208C55.4324 12.5208 55.8507 12.1072 55.8507 11.3791Z" fill="#082E47"/>
<path d="M62.8434 11.8031H59.5276C59.6623 12.2887 60.058 12.5716 60.6468 12.5716C60.8395 12.5786 61.0317 12.5455 61.2121 12.4742C61.3926 12.4029 61.5578 12.2948 61.6983 12.1561L62.5406 13.073C62.1023 13.5851 61.4632 13.8503 60.5966 13.8503C58.9722 13.8503 57.9199 12.7964 57.9199 11.3674C57.9199 9.93847 58.9889 8.9021 60.4294 8.9021C61.7761 8.9021 62.8702 9.80321 62.8702 11.385C62.8685 11.5115 62.8543 11.6678 62.8434 11.8031ZM59.5025 10.9195H61.3704C61.3411 10.6845 61.2288 10.4696 61.0557 10.3173C60.8827 10.1651 60.6616 10.0866 60.436 10.0974C59.94 10.0974 59.592 10.4154 59.5025 10.9195Z" fill="#082E47"/>
<path d="M66.6637 8.90503V10.4157C66.5436 10.399 66.4226 10.3902 66.3015 10.3893C65.654 10.3893 65.2082 10.7345 65.2082 11.5732V13.776H63.6072V8.98495H65.1304V9.56023C65.46 9.12636 65.9903 8.90503 66.6637 8.90503Z" fill="#082E47"/>
<path d="M70.6101 13.5791C70.3324 13.7644 69.92 13.8531 69.4993 13.8531C68.3282 13.8531 67.6482 13.2524 67.6482 12.0236V10.4155H66.979V9.16132H67.6482V7.91504H69.2467V9.16132H70.2906V10.4155H69.2467V12.0061C69.2467 12.3574 69.4407 12.5541 69.7268 12.5541C69.9 12.556 70.0697 12.5037 70.2145 12.4039L70.6101 13.5791Z" fill="#082E47"/>
<path d="M71.0518 7.56201C71.0518 7.05876 71.439 6.66968 72.0279 6.66968C72.6168 6.66968 73.0041 7.03153 73.0041 7.53566C73.0041 8.06263 72.6168 8.45434 72.0279 8.45434C71.439 8.45434 71.0518 8.06702 71.0518 7.56201ZM71.2283 8.98483H72.8276V13.7758H71.2283V8.98483Z" fill="#082E47"/>
<path d="M6.36148 1.32537L9.70571 5.28553L10.0897 16.1701H17.7509L18.4134 15.3656V5.55429L14.277 0.674561H6.02856L6.36148 1.32537Z" fill="#0162A8"/>
<path d="M19.0164 5.6457C18.9553 5.13278 18.6492 4.57683 18.1172 3.97696L17.8311 3.67747L16.9528 2.73595L15.6663 1.34739L15.1151 0.748403C14.8542 0.406434 14.4965 0.160381 14.0937 0.0457785H14.0736C14.0126 0.0246998 13.9306 0.0246993 13.8687 0.0027423H5.20786C5.16586 -0.0005851 5.12371 0.00664107 5.0849 0.0238215C4.61989 0.109506 4.1996 0.367549 3.90045 0.751038L0.918413 3.9796C0.306114 4.6427 -0.00170898 5.28472 -0.00170898 5.86175V15.0942C-0.00170898 15.7143 0.141328 16.1842 0.447477 16.5048C0.611406 16.673 0.806834 16.8037 1.02138 16.8885C1.23592 16.9733 1.46491 17.0104 1.69383 16.9975H7.14764C7.22817 17 7.30824 16.984 7.38233 16.9508C7.45642 16.9176 7.52276 16.8679 7.57676 16.8051C7.63511 16.7453 7.68147 16.6737 7.71312 16.5948C7.74478 16.5158 7.76108 16.431 7.76108 16.3453C7.76108 16.2597 7.74478 16.1749 7.71312 16.0959C7.68147 16.017 7.63511 15.9454 7.57676 15.8856C7.5228 15.8228 7.45646 15.773 7.38236 15.7398C7.30826 15.7066 7.22818 15.6907 7.14764 15.6932H2.02005C1.53072 15.6932 1.28479 15.4368 1.28479 14.9028V6.07342C1.28471 5.88256 1.32075 5.69359 1.39083 5.51748C1.4609 5.34138 1.56361 5.18165 1.69299 5.04759L4.63487 1.86206C4.70727 1.77932 4.78999 1.70723 4.88079 1.64776C4.95724 1.5775 5.04792 1.52644 5.14596 1.49845C5.2 1.48061 5.25673 1.47347 5.31325 1.47738C5.375 1.47395 5.43687 1.48107 5.49645 1.49845C5.61427 1.54078 5.71971 1.61429 5.80259 1.71188L5.94563 1.86118L6.45672 2.39606L7.66207 3.7003L8.54037 4.66641L8.8875 5.05022C9.08871 5.26246 9.23 5.52907 9.2957 5.82047V17.0001H17.3434C17.5723 17.0135 17.8013 16.9766 18.0159 16.8919C18.2305 16.8073 18.4259 16.6766 18.5898 16.5083C18.8959 16.1868 19.039 15.7178 19.039 15.0969L19.0164 5.6457ZM17.75 14.6472V14.8826C17.75 15.4174 17.5049 15.673 17.0147 15.673H10.5797V5.68873C10.5186 5.15386 10.2125 4.57683 9.65957 3.97872L9.39441 3.65727L8.51612 2.71663L7.22794 1.32719H13.7441C13.9482 1.32719 14.1732 1.62668 14.2552 1.71188L14.3974 1.86118L14.8875 2.39606L16.0946 3.7003L16.9729 4.66641L17.32 5.05022C17.504 5.26452 17.724 5.55348 17.7282 5.82047L17.75 14.6472Z" fill="#082E47"/>
<path d="M13.0976 9.03223H11.6438V10.5587H13.0976V9.03223Z" fill="#F9C014"/>
<path d="M15.0214 11.0269H13.5676V12.5533H15.0214V11.0269Z" fill="#F9C014"/>
<path d="M16.9311 13.075H15.4773V14.6014H16.9311V13.075Z" fill="#F9C014"/>
<path d="M13.1183 13.075H11.6646V14.6014H13.1183V13.075Z" fill="#F9C014"/>
</g>
<defs>
<clipPath id="clip0_1707_1814">
<rect width="73" height="17" fill="white"/>
</clipPath>
</defs>
</svg>
