<svg width="208" height="85" viewBox="0 0 208 85" fill="none" xmlns="http://www.w3.org/2000/svg">
<path d="M0 0H130V73C130 79.6274 124.627 85 118 85H12C5.37258 85 0 79.6274 0 73V0Z" fill="white"/>
<g clip-path="url(#clip0_1619:1234)">
<path d="M82.2693 54.4283C82.2693 58.3837 79.533 60.8547 76.1673 60.8547C74.5392 60.8547 73.3238 60.4001 72.4961 59.4135V60.6478H68.3438V43.6807H72.715V49.3273C73.5633 48.4589 74.733 48.0475 76.1787 48.0475C79.5398 48.0475 82.2693 50.4957 82.2693 54.4283ZM77.8638 54.4283C77.8638 52.553 76.7237 51.5005 75.2506 51.5005C73.7776 51.5005 72.6352 52.553 72.6352 54.4283C72.6352 56.3037 73.7753 57.4017 75.2506 57.4017C76.726 57.4017 77.8638 56.3356 77.8638 54.4283V54.4283Z" fill="#082E47"/>
<path d="M92.8678 60.1457C92.1108 60.6253 90.9866 60.8549 89.8396 60.8549C86.6473 60.8549 84.7911 59.3001 84.7911 56.1199V51.9576H82.9761V48.7115H84.8003V45.4858H89.1601V48.7115H92.0036V51.9576H89.1601V56.0744C89.1601 56.9837 89.6869 57.4929 90.4667 57.4929C90.9395 57.4981 91.4031 57.3628 91.7984 57.1041L92.8678 60.1457Z" fill="#082E47"/>
<path d="M107.779 53.5604V60.655H103.419V54.2764C103.419 52.492 102.639 51.7373 101.366 51.7373C99.9664 51.7373 98.8878 52.6057 98.8878 54.6652V60.655H94.5303V48.2616H98.6826V49.6096C99.6677 48.5821 101.068 48.0547 102.627 48.0547C105.551 48.0479 107.779 49.7187 107.779 53.5604Z" fill="#082E47"/>
<path d="M124.431 54.4517C124.431 58.3843 121.695 60.8553 118.329 60.8553C116.886 60.8553 115.716 60.4211 114.865 59.5504V65.0857H110.508V48.264H114.672V49.4984C115.497 48.5141 116.724 48.0572 118.34 48.0572C121.702 48.0481 124.431 50.519 124.431 54.4517ZM120.028 54.4517C120.028 52.5763 118.888 51.4965 117.412 51.4965C115.937 51.4965 114.797 52.5717 114.797 54.4517C114.797 56.3316 115.937 57.4068 117.412 57.4068C118.888 57.4068 120.028 56.3361 120.028 54.4517Z" fill="#082E47"/>
<path d="M134.776 48.0479V51.9577C134.45 51.9147 134.121 51.8919 133.791 51.8895C132.024 51.8895 130.809 52.7829 130.809 54.9538V60.6368H126.451V48.2433H130.604V49.73C131.497 48.6207 132.943 48.0479 134.776 48.0479Z" fill="#082E47"/>
<path d="M135.672 54.4287C135.672 50.7007 138.637 48.0479 142.691 48.0479C146.795 48.0479 149.712 50.7007 149.712 54.4287C149.712 58.1567 146.798 60.855 142.691 60.855C138.632 60.855 135.672 58.1795 135.672 54.4287ZM145.306 54.4287C145.306 52.5533 144.182 51.5008 142.691 51.5008C141.2 51.5008 140.076 52.5533 140.076 54.4287C140.076 56.3041 141.216 57.402 142.691 57.402C144.166 57.402 145.306 56.3359 145.306 54.4287Z" fill="#082E47"/>
<path d="M165.653 54.4517C165.653 58.3843 162.917 60.8553 159.551 60.8553C158.108 60.8553 156.936 60.4211 156.088 59.5504V65.0857H151.73V48.264H155.882V49.4984C156.708 48.5141 157.935 48.0572 159.551 48.0572C162.924 48.0481 165.653 50.519 165.653 54.4517ZM161.25 54.4517C161.25 52.5763 160.11 51.4965 158.635 51.4965C157.159 51.4965 156.019 52.5717 156.019 54.4517C156.019 56.3316 157.159 57.4068 158.635 57.4068C160.11 57.4068 161.25 56.3361 161.25 54.4517Z" fill="#082E47"/>
<path d="M180.313 55.5494H171.274C171.641 56.8065 172.72 57.5384 174.325 57.5384C174.851 57.5567 175.374 57.4711 175.866 57.2866C176.358 57.102 176.809 56.8222 177.192 56.4632L179.488 58.8433C178.293 60.1685 176.551 60.855 174.188 60.855C169.76 60.855 166.892 58.1272 166.892 54.4287C166.892 50.7302 169.806 48.0479 173.732 48.0479C177.404 48.0479 180.386 50.3802 180.386 54.4742C180.382 54.7947 180.343 55.1993 180.313 55.5494ZM171.206 53.2626H176.298C176.218 52.6543 175.912 52.0981 175.44 51.704C174.968 51.31 174.365 51.1069 173.751 51.1348C172.398 51.1348 171.45 51.9577 171.206 53.2626V53.2626Z" fill="#082E47"/>
<path d="M190.727 48.0479V51.9577C190.4 51.9147 190.07 51.8919 189.74 51.8895C187.975 51.8895 186.759 52.7829 186.759 54.9538V60.6368H182.395V48.2433H186.547V49.73C187.446 48.6207 188.891 48.0479 190.727 48.0479Z" fill="#082E47"/>
<path d="M201.485 60.1457C200.728 60.6253 199.604 60.8549 198.457 60.8549C195.265 60.8549 193.411 59.3001 193.411 56.1199V51.9576H191.587V48.7115H193.411V45.4858H197.769V48.7115H200.614V51.9576H197.769V56.0744C197.769 56.9837 198.298 57.4929 199.078 57.4929C199.55 57.4977 200.012 57.3624 200.407 57.1041L201.485 60.1457Z" fill="#082E47"/>
<path d="M202.689 44.5723C202.689 43.2697 203.745 42.2627 205.351 42.2627C206.956 42.2627 208.012 43.1992 208.012 44.5041C208.012 45.868 206.956 46.8818 205.351 46.8818C203.745 46.8818 202.689 45.8794 202.689 44.5723ZM203.171 48.2548H207.53V60.6551H203.171V48.2548Z" fill="#082E47"/>
<path d="M26.3416 28.43L35.4581 38.6799L36.5047 66.8516H57.3896L59.1955 64.7694V39.3755L47.9197 26.7456H25.4341L26.3416 28.43Z" fill="#0162A8"/>
<path d="M60.8414 39.6103C60.675 38.2827 59.8404 36.8438 58.3901 35.2912L57.6103 34.516L55.216 32.0792L51.709 28.4852L50.2063 26.9349C49.4951 26.0498 48.5201 25.413 47.4221 25.1164H47.3674C47.2009 25.0618 46.9775 25.0618 46.8087 25.005H23.199C23.0845 24.9964 22.9696 25.0151 22.8638 25.0595C21.5962 25.2813 20.4505 25.9492 19.6349 26.9417L11.5058 35.298C9.83669 37.0143 8.99756 38.676 8.99756 40.1695V64.0653C8.99756 65.6702 9.38748 66.8864 10.2221 67.7161C10.6689 68.1516 11.2017 68.4898 11.7865 68.7093C12.3714 68.9289 12.9956 69.0249 13.6196 68.9913H28.4869C28.7064 68.9978 28.9247 68.9566 29.1267 68.8706C29.3286 68.7847 29.5095 68.656 29.6567 68.4935C29.8157 68.3385 29.9421 68.1534 30.0284 67.9491C30.1147 67.7447 30.1592 67.5252 30.1592 67.3035C30.1592 67.0818 30.1147 66.8623 30.0284 66.6579C29.9421 66.4535 29.8157 66.2684 29.6567 66.1135C29.5096 65.9509 29.3287 65.8221 29.1267 65.7362C28.9248 65.6502 28.7064 65.6091 28.4869 65.6156H14.5089C13.175 65.6156 12.5046 64.9518 12.5046 63.5697V40.7128C12.5044 40.2188 12.6026 39.7297 12.7937 39.2739C12.9847 38.8181 13.2647 38.4046 13.6174 38.0577L21.637 29.8128C21.8344 29.5986 22.0599 29.412 22.3074 29.2581C22.5158 29.0763 22.763 28.9441 23.0302 28.8717C23.1776 28.8255 23.3322 28.807 23.4863 28.8171C23.6546 28.8082 23.8233 28.8267 23.9857 28.8717C24.3069 28.9812 24.5943 29.1715 24.8202 29.4241L25.2102 29.8105L26.6034 31.1949L29.8892 34.5706L32.2835 37.0711L33.2298 38.0645C33.7783 38.6138 34.1635 39.3039 34.3426 40.0581V69.0027H56.2809C56.9048 69.0372 57.5291 68.9419 58.1141 68.7227C58.699 68.5036 59.2318 68.1654 59.6785 67.7297C60.513 66.8977 60.903 65.6838 60.903 64.0767L60.8414 39.6103ZM57.3891 62.9083V63.5175C57.3891 64.9018 56.721 65.5633 55.3848 65.5633H37.8428V39.7194C37.6763 38.335 36.8417 36.8415 35.3345 35.2935L34.6117 34.4615L32.2174 32.0269L28.7058 28.4329H46.469C47.0254 28.4329 47.6387 29.2081 47.8622 29.4286L48.2498 29.815L49.5861 31.1994L52.8719 34.5751L55.2662 37.0756L56.2125 38.069C56.7141 38.6237 57.3138 39.3716 57.3252 40.0626L57.3891 62.9083Z" fill="#082E47"/>
<path d="M44.7043 48.3779H40.7412V52.3287H44.7043V48.3779Z" fill="#F9C014"/>
<path d="M49.9484 53.54H45.9854V57.4909H49.9484V53.54Z" fill="#F9C014"/>
<path d="M55.155 58.8408H51.1919V62.7916H55.155V58.8408Z" fill="#F9C014"/>
<path d="M44.7609 58.8408H40.7979V62.7916H44.7609V58.8408Z" fill="#F9C014"/>
</g>
<defs>
<clipPath id="clip0_1619:1234">
<rect width="199" height="44" fill="white" transform="translate(9 25)"/>
</clipPath>
</defs>
</svg>
