<svg width="130" height="85" viewBox="0 0 130 85" fill="none" xmlns="http://www.w3.org/2000/svg">
<path d="M0 0H130V73C130 79.6274 124.627 85 118 85H12C5.37258 85 0 79.6274 0 73V0Z" fill="white"/>
<g clip-path="url(#clip0_682:2946)">
<path d="M33.6771 64.1214C33.6771 66.3035 32.1725 67.6659 30.3128 67.6659C29.4145 67.6659 28.7448 67.4143 28.2888 66.8717V67.5525H25.9951V58.1934H28.398V61.3042C28.8659 60.8248 29.5118 60.5979 30.3082 60.5979C32.1697 60.6024 33.6771 61.952 33.6771 64.1214ZM31.2486 64.1214C31.2486 63.0875 30.6164 62.5074 29.8072 62.5074C28.998 62.5074 28.365 63.0875 28.365 64.1214C28.365 65.169 28.9971 65.7619 29.8072 65.7619C30.6174 65.7619 31.2522 65.169 31.2522 64.1214H31.2486Z" fill="#082E47"/>
<path d="M39.5205 67.2736C39.103 67.5389 38.4828 67.6643 37.8507 67.6643C36.0928 67.6643 35.068 66.807 35.068 65.0539V62.7601H34.0688V60.9686H35.068V59.1899H37.4718V60.9686H39.0397V62.7601H37.4718V65.0301C37.4718 65.5343 37.7626 65.8124 38.192 65.8124C38.4526 65.8149 38.7081 65.7401 38.926 65.5974L39.5205 67.2736Z" fill="#082E47"/>
<path d="M47.7419 63.6427V67.5523H45.3381V64.0334C45.3381 63.0498 44.9078 62.6335 44.2123 62.6335C43.4408 62.6335 42.8462 63.1129 42.8462 64.2475V67.5523H40.4434V60.7157H42.7325V61.4596C43.2765 60.8923 44.0481 60.6023 44.9078 60.6023C46.5143 60.6023 47.7419 61.5227 47.7419 63.6427Z" fill="#082E47"/>
<path d="M56.9245 64.134C56.9245 66.3034 55.4189 67.6658 53.5601 67.6658C52.7628 67.6658 52.1178 67.4261 51.6499 66.9475V69.9998H49.2471V60.7157H51.5362V61.3974C51.9949 60.8548 52.6619 60.6023 53.5601 60.6023C55.4189 60.6023 56.9245 61.9665 56.9245 64.134ZM54.4959 64.134C54.4959 63.1001 53.8638 62.5072 53.0537 62.5072C52.2435 62.5072 51.6123 63.1001 51.6123 64.134C51.6123 65.1679 52.2445 65.7617 53.0537 65.7617C53.8629 65.7617 54.4959 65.1689 54.4959 64.134Z" fill="#082E47"/>
<path d="M62.6305 60.6023V62.7598C62.4501 62.7355 62.2684 62.7227 62.0864 62.7213C61.113 62.7213 60.4423 63.2136 60.4423 64.4113V67.5523H58.0376V60.7157H60.3267V61.5392C60.8203 60.918 61.6213 60.6023 62.6305 60.6023Z" fill="#082E47"/>
<path d="M63.1221 64.1212C63.1221 62.0653 64.7533 60.6023 66.992 60.6023C69.2563 60.6023 70.8628 62.0662 70.8628 64.1212C70.8628 66.1762 69.2563 67.6658 66.992 67.6658C64.7533 67.6658 63.1221 66.1899 63.1221 64.1212ZM68.4343 64.1212C68.4343 63.0873 67.8141 62.5072 66.992 62.5072C66.1699 62.5072 65.5506 63.0873 65.5506 64.1212C65.5506 65.1689 66.1828 65.7617 66.992 65.7617C67.8012 65.7617 68.4343 65.1689 68.4343 64.1212Z" fill="#082E47"/>
<path d="M79.653 64.134C79.653 66.3034 78.1474 67.6658 76.2877 67.6658C75.4913 67.6658 74.8463 67.4261 74.3784 66.9475V69.9998H71.9746V60.7157H74.2683V61.3974C74.727 60.8548 75.394 60.6023 76.2913 60.6023C78.1474 60.6023 79.653 61.9665 79.653 64.134ZM77.2244 64.134C77.2244 63.1001 76.5913 62.5072 75.7821 62.5072C74.9729 62.5072 74.3399 63.1001 74.3399 64.134C74.3399 65.1679 74.9729 65.7617 75.7821 65.7617C76.5913 65.7617 77.2244 65.1689 77.2244 64.134Z" fill="#082E47"/>
<path d="M87.734 64.74H82.7512C82.953 65.4336 83.5475 65.838 84.4329 65.838C85.1036 65.838 85.5458 65.6495 86.0146 65.2451L87.2789 66.5572C86.6211 67.2891 85.6605 67.667 84.3577 67.667C81.9163 67.667 80.3354 66.1665 80.3354 64.1224C80.3354 62.0784 81.941 60.6035 84.1044 60.6035C86.1284 60.6035 87.7743 61.89 87.7743 64.1481C87.7688 64.3237 87.7468 64.5507 87.734 64.74ZM82.7126 63.4783H85.521C85.3944 62.7601 84.8632 62.3053 84.1173 62.3053C83.3714 62.3053 82.8521 62.7601 82.7126 63.4783Z" fill="#082E47"/>
<path d="M93.4768 60.6023V62.7598C93.2964 62.7355 93.1147 62.7227 92.9327 62.7213C91.9593 62.7213 91.2886 63.2136 91.2886 64.4113V67.5523H88.8857V60.7157H91.1794V61.5392C91.6684 60.918 92.4648 60.6023 93.4768 60.6023Z" fill="#082E47"/>
<path d="M99.4077 67.2736C98.9903 67.5389 98.371 67.6643 97.7389 67.6643C95.9801 67.6643 94.9562 66.807 94.9562 65.0539V62.7601H93.957V60.9686H94.9562V59.1899H97.359V60.9686H98.9279V62.7601H97.359V65.0301C97.359 65.5343 97.6499 65.8124 98.0802 65.8124C98.3408 65.8151 98.5964 65.7402 98.8141 65.5974L99.4077 67.2736Z" fill="#082E47"/>
<path d="M100.063 58.6848C100.063 57.9665 100.645 57.4111 101.531 57.4111C102.417 57.4111 102.999 57.9281 102.999 58.6472C102.999 59.4039 102.417 59.9593 101.531 59.9593C100.645 59.9593 100.063 59.4048 100.063 58.6848ZM100.328 60.716H102.732V67.5525H100.328V60.716Z" fill="#082E47"/>
<path d="M57.5223 17.7322L64.7795 25.8945L65.6117 48.3284H82.2381L83.6749 46.6714V26.4472L74.6992 16.3909H56.7993L57.5223 17.7322Z" fill="#0162A8"/>
<path d="M84.9862 26.6335C84.8532 25.5758 84.1889 24.4303 83.0348 23.1969L82.4136 22.5793L80.508 20.6387L77.7162 17.7739L76.5234 16.5397C75.9922 15.8351 75.194 15.3502 74.3077 15.0858H74.2637C74.1316 15.0428 73.9536 15.0428 73.8206 14.9943H55.0206C54.9294 14.9875 54.838 15.0022 54.7536 15.0373C53.745 15.2141 52.8335 15.7459 52.1847 16.536L45.7119 23.1969C44.3825 24.5629 43.7173 25.886 43.7173 27.0745V46.113C43.7173 47.3939 44.0274 48.3601 44.6916 49.0216C45.0477 49.369 45.4724 49.6385 45.9387 49.8131C46.4051 49.9876 46.9027 50.0633 47.4 50.0354H59.2355C59.4102 50.0405 59.5839 50.0077 59.7447 49.9393C59.9055 49.8709 60.0495 49.7685 60.1667 49.6392C60.2933 49.5158 60.3939 49.3685 60.4625 49.2058C60.5312 49.043 60.5666 48.8683 60.5666 48.6918C60.5666 48.5152 60.5312 48.3405 60.4625 48.1778C60.3939 48.0151 60.2933 47.8677 60.1667 47.7443C60.0494 47.6151 59.9055 47.5127 59.7447 47.4443C59.5839 47.3759 59.4102 47.3431 59.2355 47.3482H48.1083C47.045 47.3482 46.5128 46.8193 46.5128 45.7186V27.5164C46.5122 27.1229 46.5901 26.7331 46.7421 26.3699C46.8941 26.0067 47.1172 25.6773 47.3982 25.401L53.7829 18.8344C53.9397 18.6643 54.1187 18.516 54.315 18.3934C54.4921 18.2616 54.6701 18.1289 54.8912 18.085C55.006 18.0495 55.1263 18.0349 55.2463 18.042C55.3805 18.035 55.5149 18.0495 55.6445 18.085C55.8999 18.1733 56.1287 18.3247 56.3096 18.5251L56.6197 18.8335L57.728 19.9314L60.3364 22.6232L62.2429 24.6069L62.9962 25.3992C63.4327 25.8364 63.7395 26.3855 63.8825 26.9857V50.0363H81.3466C81.8434 50.064 82.3405 49.9881 82.8063 49.8134C83.272 49.6387 83.696 49.369 84.0513 49.0216C84.7165 48.361 85.0266 47.3921 85.0266 46.113L84.9862 26.6335ZM82.2338 45.187V45.672C82.2338 46.7699 81.7017 47.3015 80.6383 47.3015H66.6743V26.7222C66.5422 25.6197 65.8771 24.4303 64.6798 23.1969L64.1036 22.5363L62.198 20.5966L59.4098 17.7319H73.5481C73.9912 17.7319 74.4784 18.3504 74.6564 18.5251L74.9665 18.8335L76.0298 19.9314L78.6474 22.6232L80.553 24.6059L81.3072 25.3992C81.7053 25.8402 82.1824 26.4359 82.1925 26.9857L82.2338 45.187Z" fill="#082E47"/>
<path d="M72.1406 33.6167H68.9854V36.7633H72.1406V33.6167Z" fill="#F9C014"/>
<path d="M76.3153 37.7278H73.1602V40.8743H76.3153V37.7278Z" fill="#F9C014"/>
<path d="M80.4594 41.9492H77.3042V45.0958H80.4594V41.9492Z" fill="#F9C014"/>
<path d="M72.1864 41.9492H69.0312V45.0958H72.1864V41.9492Z" fill="#F9C014"/>
</g>
<defs>
<clipPath id="clip0_682:2946">
<rect width="77" height="55" fill="white" transform="translate(26 15)"/>
</clipPath>
</defs>
</svg>
